# MagicaVoxel @ Ephtracy

# group
o 

# material
mtllib AppleMob.mtl
usemtl palette

# normals
vn -1 0 0
vn 1 0 0
vn 0 0 1
vn 0 0 -1
vn 0 -1 0
vn 0 1 0

# texcoords
vt 0.0292969 0.5
vt 0.0957031 0.5
vt 0.138672 0.5
vt 0.306641 0.5
vt 0.560547 0.5
vt 0.583984 0.5
vt 0.916016 0.5
vt 0.994141 0.5

# verts
v -0.5 0 0.5
v -0.5 0 -0.5
v -0.5 0.1 0.4
v -0.5 0.1 -0.4
v -0.5 0.9 0.4
v -0.5 0.9 -0.4
v -0.5 1 0.5
v -0.5 1 -0.5
v -0.3 1 0.2
v -0.3 1 0.1
v -0.3 1.1 0.2
v -0.3 1.1 0.1
v -0.2 1 0.1
v -0.2 1 -0.1
v -0.2 1.1 0.1
v -0.2 1.1 -0.1
v -0.1 1 -0.1
v -0.1 1 -0.2
v -0.1 1.1 -0.1
v -0.1 1.1 -0.2
v 0 1 -0.2
v 0 1 -0.3
v 0 1.1 -0.2
v 0 1.1 -0.3
v 0.1 1 -0.3
v 0.1 1 -0.4
v 0.1 1.1 -0.3
v 0.1 1.1 -0.4
v 0 1 0.2
v 0 1 0.1
v 0 1.1 0.2
v 0 1.1 0.1
v 0.1 1 0.1
v 0.1 1 0
v 0.1 1.1 0.1
v 0.1 1.1 0
v 0.2 1 0
v 0.2 1 -0.1
v 0.2 1 -0.3
v 0.2 1 -0.4
v 0.2 1.1 0
v 0.2 1.1 -0.1
v 0.2 1.1 -0.3
v 0.2 1.1 -0.4
v 0.3 1 -0.1
v 0.3 1 -0.3
v 0.3 1.1 -0.1
v 0.3 1.1 -0.3
v 0.5 0 0.5
v 0.5 0 -0.5
v 0.5 0.1 0.4
v 0.5 0.1 -0.4
v 0.5 0.9 0.4
v 0.5 0.9 -0.4
v 0.5 1 0.5
v 0.5 1 -0.5
v -0.5 0 0.5
v -0.5 1 0.5
v -0.4 0.1 0.5
v -0.4 0.4 0.5
v -0.4 0.5 0.5
v -0.4 0.9 0.5
v -0.3 0.5 0.5
v -0.3 0.9 0.5
v -0.2 0.4 0.5
v -0.2 0.5 0.5
v -0.2 0.9 0.5
v 0.2 0.4 0.5
v 0.2 0.5 0.5
v 0.2 0.9 0.5
v 0.3 0.5 0.5
v 0.3 0.9 0.5
v 0.4 0.1 0.5
v 0.4 0.4 0.5
v 0.4 0.5 0.5
v 0.4 0.9 0.5
v 0.5 0 0.5
v 0.5 1 0.5
v -0.3 1 0.2
v -0.3 1.1 0.2
v 0 1 0.2
v 0 1.1 0.2
v 0 1 0.1
v 0 1.1 0.1
v 0.1 1 0.1
v 0.1 1.1 0.1
v 0.1 1 0
v 0.1 1.1 0
v 0.2 1 0
v 0.2 1.1 0
v 0.2 1 -0.1
v 0.2 1.1 -0.1
v 0.3 1 -0.1
v 0.3 1.1 -0.1
v -0.3 1 0.1
v -0.3 1.1 0.1
v -0.2 1 0.1
v -0.2 1.1 0.1
v -0.2 1 -0.1
v -0.2 1.1 -0.1
v -0.1 1 -0.1
v -0.1 1.1 -0.1
v -0.1 1 -0.2
v -0.1 1.1 -0.2
v 0 1 -0.2
v 0 1.1 -0.2
v 0 1 -0.3
v 0 1.1 -0.3
v 0.1 1 -0.3
v 0.1 1.1 -0.3
v 0.2 1 -0.3
v 0.2 1.1 -0.3
v 0.3 1 -0.3
v 0.3 1.1 -0.3
v 0.1 1 -0.4
v 0.1 1.1 -0.4
v 0.2 1 -0.4
v 0.2 1.1 -0.4
v -0.5 0 -0.5
v -0.5 1 -0.5
v -0.4 0.1 -0.5
v -0.4 0.9 -0.5
v 0.4 0.1 -0.5
v 0.4 0.9 -0.5
v 0.5 0 -0.5
v 0.5 1 -0.5
v -0.5 0 0.5
v 0.5 0 0.5
v -0.4 0 0.4
v 0.4 0 0.4
v -0.4 0 -0.4
v 0.4 0 -0.4
v -0.5 0 -0.5
v 0.5 0 -0.5
v -0.5 1 0.5
v 0.5 1 0.5
v -0.4 1 0.4
v 0.4 1 0.4
v -0.3 1 0.2
v 0 1 0.2
v -0.3 1 0.1
v -0.2 1 0.1
v 0 1 0.1
v 0.1 1 0.1
v 0.1 1 0
v 0.2 1 0
v -0.2 1 -0.1
v -0.1 1 -0.1
v 0.2 1 -0.1
v 0.3 1 -0.1
v -0.1 1 -0.2
v 0 1 -0.2
v 0 1 -0.3
v 0.1 1 -0.3
v 0.2 1 -0.3
v 0.3 1 -0.3
v -0.4 1 -0.4
v 0.1 1 -0.4
v 0.2 1 -0.4
v 0.4 1 -0.4
v -0.5 1 -0.5
v 0.5 1 -0.5
v -0.3 1.1 0.2
v 0 1.1 0.2
v -0.3 1.1 0.1
v -0.2 1.1 0.1
v -0.1 1.1 0.1
v 0 1.1 0.1
v 0.1 1.1 0.1
v 0 1.1 0
v 0.1 1.1 0
v 0.2 1.1 0
v -0.2 1.1 -0.1
v -0.1 1.1 -0.1
v 0 1.1 -0.1
v 0.1 1.1 -0.1
v 0.2 1.1 -0.1
v 0.3 1.1 -0.1
v -0.1 1.1 -0.2
v 0 1.1 -0.2
v 0.1 1.1 -0.2
v 0 1.1 -0.3
v 0.1 1.1 -0.3
v 0.2 1.1 -0.3
v 0.3 1.1 -0.3
v 0.1 1.1 -0.4
v 0.2 1.1 -0.4

# faces
f 3/3/1 2/3/1 1/3/1
f 4/3/1 2/3/1 3/3/1
f 5/3/1 3/3/1 1/3/1
f 5/2/1 4/2/1 3/2/1
f 6/3/1 2/3/1 4/3/1
f 6/2/1 4/2/1 5/2/1
f 7/3/1 5/3/1 1/3/1
f 7/3/1 6/3/1 5/3/1
f 8/3/1 2/3/1 6/3/1
f 8/3/1 6/3/1 7/3/1
f 11/5/1 10/5/1 9/5/1
f 12/5/1 10/5/1 11/5/1
f 15/5/1 14/5/1 13/5/1
f 16/5/1 14/5/1 15/5/1
f 19/5/1 18/5/1 17/5/1
f 20/5/1 18/5/1 19/5/1
f 23/5/1 22/5/1 21/5/1
f 24/5/1 22/5/1 23/5/1
f 27/5/1 26/5/1 25/5/1
f 28/5/1 26/5/1 27/5/1
f 29/5/2 30/5/2 31/5/2
f 31/5/2 30/5/2 32/5/2
f 33/5/2 34/5/2 35/5/2
f 35/5/2 34/5/2 36/5/2
f 37/5/2 38/5/2 41/5/2
f 41/5/2 38/5/2 42/5/2
f 39/5/2 40/5/2 43/5/2
f 43/5/2 40/5/2 44/5/2
f 45/5/2 46/5/2 47/5/2
f 47/5/2 46/5/2 48/5/2
f 49/3/2 50/3/2 51/3/2
f 51/3/2 50/3/2 52/3/2
f 49/3/2 51/3/2 53/3/2
f 51/2/2 52/2/2 53/2/2
f 52/3/2 50/3/2 54/3/2
f 53/2/2 52/2/2 54/2/2
f 49/3/2 53/3/2 55/3/2
f 53/3/2 54/3/2 55/3/2
f 54/3/2 50/3/2 56/3/2
f 55/3/2 54/3/2 56/3/2
f 59/3/3 58/3/3 57/3/3
f 60/3/3 58/3/3 59/3/3
f 61/3/3 58/3/3 60/3/3
f 62/3/3 58/3/3 61/3/3
f 63/1/3 61/1/3 60/1/3
f 63/7/3 62/7/3 61/7/3
f 64/3/3 58/3/3 62/3/3
f 64/7/3 62/7/3 63/7/3
f 65/2/3 60/2/3 59/2/3
f 65/1/3 63/1/3 60/1/3
f 66/8/3 64/8/3 63/8/3
f 66/1/3 63/1/3 65/1/3
f 67/3/3 58/3/3 64/3/3
f 67/8/3 64/8/3 66/8/3
f 68/7/3 66/7/3 65/7/3
f 68/2/3 65/2/3 59/2/3
f 68/7/3 67/7/3 66/7/3
f 69/7/3 67/7/3 68/7/3
f 70/3/3 58/3/3 67/3/3
f 70/7/3 67/7/3 69/7/3
f 71/1/3 69/1/3 68/1/3
f 71/8/3 70/8/3 69/8/3
f 72/3/3 58/3/3 70/3/3
f 72/8/3 70/8/3 71/8/3
f 73/3/3 59/3/3 57/3/3
f 73/2/3 68/2/3 59/2/3
f 74/1/3 71/1/3 68/1/3
f 74/2/3 68/2/3 73/2/3
f 75/7/3 72/7/3 71/7/3
f 75/1/3 71/1/3 74/1/3
f 76/3/3 58/3/3 72/3/3
f 76/7/3 72/7/3 75/7/3
f 77/3/3 75/3/3 74/3/3
f 77/3/3 73/3/3 57/3/3
f 77/3/3 76/3/3 75/3/3
f 77/3/3 74/3/3 73/3/3
f 78/3/3 58/3/3 76/3/3
f 78/3/3 76/3/3 77/3/3
f 81/5/3 80/5/3 79/5/3
f 82/5/3 80/5/3 81/5/3
f 85/5/3 84/5/3 83/5/3
f 86/5/3 84/5/3 85/5/3
f 89/5/3 88/5/3 87/5/3
f 90/5/3 88/5/3 89/5/3
f 93/5/3 92/5/3 91/5/3
f 94/5/3 92/5/3 93/5/3
f 95/5/4 96/5/4 97/5/4
f 97/5/4 96/5/4 98/5/4
f 99/5/4 100/5/4 101/5/4
f 101/5/4 100/5/4 102/5/4
f 103/5/4 104/5/4 105/5/4
f 105/5/4 104/5/4 106/5/4
f 107/5/4 108/5/4 109/5/4
f 109/5/4 108/5/4 110/5/4
f 111/5/4 112/5/4 113/5/4
f 113/5/4 112/5/4 114/5/4
f 115/5/4 116/5/4 117/5/4
f 117/5/4 116/5/4 118/5/4
f 119/3/4 120/3/4 121/3/4
f 121/3/4 120/3/4 122/3/4
f 119/3/4 121/3/4 123/3/4
f 121/2/4 122/2/4 123/2/4
f 122/3/4 120/3/4 124/3/4
f 123/2/4 122/2/4 124/2/4
f 119/3/4 123/3/4 125/3/4
f 123/3/4 124/3/4 125/3/4
f 124/3/4 120/3/4 126/3/4
f 125/3/4 124/3/4 126/3/4
f 129/3/5 128/3/5 127/3/5
f 130/3/5 128/3/5 129/3/5
f 131/3/5 129/3/5 127/3/5
f 131/2/5 130/2/5 129/2/5
f 132/3/5 128/3/5 130/3/5
f 132/2/5 130/2/5 131/2/5
f 133/3/5 131/3/5 127/3/5
f 133/3/5 132/3/5 131/3/5
f 134/3/5 128/3/5 132/3/5
f 134/3/5 132/3/5 133/3/5
f 135/3/6 136/3/6 137/3/6
f 137/3/6 136/3/6 138/3/6
f 137/2/6 138/2/6 139/2/6
f 139/2/6 138/2/6 140/2/6
f 137/2/6 139/2/6 141/2/6
f 140/2/6 138/2/6 143/2/6
f 143/2/6 138/2/6 144/2/6
f 144/2/6 138/2/6 145/2/6
f 145/2/6 138/2/6 146/2/6
f 141/2/6 142/2/6 147/2/6
f 146/2/6 138/2/6 149/2/6
f 149/2/6 138/2/6 150/2/6
f 147/2/6 148/2/6 151/2/6
f 151/2/6 152/2/6 153/2/6
f 150/2/6 138/2/6 156/2/6
f 135/3/6 137/3/6 157/3/6
f 153/2/6 154/2/6 157/2/6
f 137/2/6 141/2/6 157/2/6
f 141/2/6 147/2/6 157/2/6
f 151/2/6 153/2/6 157/2/6
f 147/2/6 151/2/6 157/2/6
f 157/2/6 154/2/6 158/2/6
f 155/2/6 156/2/6 159/2/6
f 138/3/6 136/3/6 160/3/6
f 156/2/6 138/2/6 160/2/6
f 159/2/6 156/2/6 160/2/6
f 157/3/6 158/3/6 161/3/6
f 158/3/6 159/3/6 161/3/6
f 159/3/6 160/3/6 161/3/6
f 135/3/6 157/3/6 161/3/6
f 160/3/6 136/3/6 162/3/6
f 161/3/6 160/3/6 162/3/6
f 163/5/6 164/5/6 165/5/6
f 165/5/6 164/5/6 166/5/6
f 166/5/6 164/5/6 167/5/6
f 167/5/6 164/5/6 168/5/6
f 168/5/6 169/5/6 170/5/6
f 167/6/6 168/6/6 170/6/6
f 170/5/6 169/5/6 171/5/6
f 166/5/6 167/5/6 173/5/6
f 167/6/6 170/6/6 174/6/6
f 173/5/6 167/5/6 174/5/6
f 170/6/6 171/6/6 174/6/6
f 174/6/6 171/6/6 175/6/6
f 171/5/6 172/5/6 176/5/6
f 175/6/6 171/6/6 176/6/6
f 176/5/6 172/5/6 177/5/6
f 174/5/6 175/5/6 179/5/6
f 176/6/6 177/6/6 180/6/6
f 179/5/6 175/5/6 180/5/6
f 175/6/6 176/6/6 180/6/6
f 180/6/6 177/6/6 181/6/6
f 180/5/6 181/5/6 182/5/6
f 181/6/6 177/6/6 183/6/6
f 182/5/6 181/5/6 183/5/6
f 177/5/6 178/5/6 184/5/6
f 183/6/6 177/6/6 184/6/6
f 184/5/6 178/5/6 185/5/6
f 183/5/6 184/5/6 186/5/6
f 186/5/6 184/5/6 187/5/6
