# MagicaVoxel @ Ephtracy

# group
o 

# material
mtllib Boss.mtl
usemtl palette

# normals
vn -1 0 0
vn 1 0 0
vn 0 0 1
vn 0 0 -1
vn 0 -1 0
vn 0 1 0

# texcoords
vt 0.0292969 0.5
vt 0.115234 0.5
vt 0.146484 0.5
vt 0.482422 0.5
vt 0.958984 0.5
vt 0.974609 0.5
vt 0.994141 0.5

# verts
v -0.5 0 0.5
v -0.5 0 -0.5
v -0.5 0.5 0.5
v -0.5 0.5 0.4
v -0.5 0.6 0.5
v -0.5 0.6 0.4
v -0.5 1 0.5
v -0.5 1 -0.5
v -0.4 1 0.4
v -0.4 1 -0.4
v -0.4 1.1 0.3
v -0.4 1.1 -0.3
v -0.4 1.2 0.4
v -0.4 1.2 0.3
v -0.4 1.2 -0.3
v -0.4 1.2 -0.4
v -0.2 1 0.2
v -0.2 1 0.1
v -0.2 1 -0.1
v -0.2 1 -0.2
v -0.2 1.1 0.2
v -0.2 1.1 0.1
v -0.2 1.1 -0.1
v -0.2 1.1 -0.2
v -0.1 1 0.1
v -0.1 1 -0.1
v -0.1 1.1 0.1
v -0.1 1.1 -0.1
v -0.1 1.2 0.1
v -0.1 1.2 -0.1
v 0.1 1 0.2
v 0.1 1 0.1
v 0.1 1 -0.1
v 0.1 1 -0.2
v 0.1 1.1 0.2
v 0.1 1.1 0.1
v 0.1 1.1 -0.1
v 0.1 1.1 -0.2
v 0.2 1 0.3
v 0.2 1 0.2
v 0.2 1 -0.2
v 0.2 1 -0.3
v 0.2 1.1 0.3
v 0.2 1.1 0.2
v 0.2 1.1 -0.2
v 0.2 1.1 -0.3
v 0.3 1 0.2
v 0.3 1 -0.2
v 0.3 1.1 0.4
v 0.3 1.1 0.3
v 0.3 1.1 0.2
v 0.3 1.1 -0.2
v 0.3 1.1 -0.3
v 0.3 1.1 -0.4
v 0.3 1.2 0.4
v 0.3 1.2 0.3
v 0.3 1.2 -0.3
v 0.3 1.2 -0.4
v -0.3 1 0.2
v -0.3 1 -0.2
v -0.3 1.1 0.4
v -0.3 1.1 0.3
v -0.3 1.1 0.2
v -0.3 1.1 -0.2
v -0.3 1.1 -0.3
v -0.3 1.1 -0.4
v -0.3 1.2 0.4
v -0.3 1.2 0.3
v -0.3 1.2 -0.3
v -0.3 1.2 -0.4
v -0.2 1 0.3
v -0.2 1 0.2
v -0.2 1 -0.2
v -0.2 1 -0.3
v -0.2 1.1 0.3
v -0.2 1.1 0.2
v -0.2 1.1 -0.2
v -0.2 1.1 -0.3
v -0.1 1 0.2
v -0.1 1 0.1
v -0.1 1 -0.1
v -0.1 1 -0.2
v -0.1 1.1 0.2
v -0.1 1.1 0.1
v -0.1 1.1 -0.1
v -0.1 1.1 -0.2
v 0.1 1 0.1
v 0.1 1 -0.1
v 0.1 1.1 0.1
v 0.1 1.1 -0.1
v 0.1 1.2 0.1
v 0.1 1.2 -0.1
v 0.2 1 0.2
v 0.2 1 0.1
v 0.2 1 -0.1
v 0.2 1 -0.2
v 0.2 1.1 0.2
v 0.2 1.1 0.1
v 0.2 1.1 -0.1
v 0.2 1.1 -0.2
v 0.4 1 0.4
v 0.4 1 -0.4
v 0.4 1.1 0.3
v 0.4 1.1 -0.3
v 0.4 1.2 0.4
v 0.4 1.2 0.3
v 0.4 1.2 -0.3
v 0.4 1.2 -0.4
v 0.5 0 0.5
v 0.5 0 -0.5
v 0.5 0.5 0.5
v 0.5 0.5 0.4
v 0.5 0.6 0.5
v 0.5 0.6 0.4
v 0.5 1 0.5
v 0.5 1 -0.5
v -0.5 0 0.5
v -0.5 0.5 0.5
v -0.5 0.6 0.5
v -0.5 1 0.5
v -0.4 0.4 0.5
v -0.4 0.5 0.5
v -0.4 0.6 0.5
v -0.4 0.9 0.5
v -0.3 0.5 0.5
v -0.3 0.6 0.5
v -0.3 0.9 0.5
v -0.2 0.5 0.5
v -0.2 0.9 0.5
v 0.2 0.5 0.5
v 0.2 0.9 0.5
v 0.3 0.5 0.5
v 0.3 0.6 0.5
v 0.3 0.9 0.5
v 0.4 0.4 0.5
v 0.4 0.5 0.5
v 0.4 0.6 0.5
v 0.4 0.9 0.5
v 0.5 0 0.5
v 0.5 0.5 0.5
v 0.5 0.6 0.5
v 0.5 1 0.5
v -0.4 1 0.4
v -0.4 1.2 0.4
v -0.3 1.1 0.4
v -0.3 1.2 0.4
v 0.3 1.1 0.4
v 0.3 1.2 0.4
v 0.4 1 0.4
v 0.4 1.2 0.4
v -0.2 1 0.2
v -0.2 1.1 0.2
v -0.1 1 0.2
v -0.1 1.1 0.2
v 0.1 1 0.2
v 0.1 1.1 0.2
v 0.2 1 0.2
v 0.2 1.1 0.2
v -0.1 1 0.1
v -0.1 1.1 0.1
v -0.1 1.2 0.1
v 0.1 1 0.1
v 0.1 1.1 0.1
v 0.1 1.2 0.1
v -0.2 1 -0.1
v -0.2 1.1 -0.1
v -0.1 1 -0.1
v -0.1 1.1 -0.1
v 0.1 1 -0.1
v 0.1 1.1 -0.1
v 0.2 1 -0.1
v 0.2 1.1 -0.1
v -0.3 1 -0.2
v -0.3 1.1 -0.2
v -0.2 1 -0.2
v -0.2 1.1 -0.2
v 0.2 1 -0.2
v 0.2 1.1 -0.2
v 0.3 1 -0.2
v 0.3 1.1 -0.2
v -0.4 1.1 -0.3
v -0.4 1.2 -0.3
v -0.3 1.1 -0.3
v -0.3 1.2 -0.3
v -0.2 1 -0.3
v -0.2 1.1 -0.3
v 0.2 1 -0.3
v 0.2 1.1 -0.3
v 0.3 1.1 -0.3
v 0.3 1.2 -0.3
v 0.4 1.1 -0.3
v 0.4 1.2 -0.3
v -0.4 1.1 0.3
v -0.4 1.2 0.3
v -0.3 1.1 0.3
v -0.3 1.2 0.3
v -0.2 1 0.3
v -0.2 1.1 0.3
v 0.2 1 0.3
v 0.2 1.1 0.3
v 0.3 1.1 0.3
v 0.3 1.2 0.3
v 0.4 1.1 0.3
v 0.4 1.2 0.3
v -0.3 1 0.2
v -0.3 1.1 0.2
v -0.2 1 0.2
v -0.2 1.1 0.2
v 0.2 1 0.2
v 0.2 1.1 0.2
v 0.3 1 0.2
v 0.3 1.1 0.2
v -0.2 1 0.1
v -0.2 1.1 0.1
v -0.1 1 0.1
v -0.1 1.1 0.1
v 0.1 1 0.1
v 0.1 1.1 0.1
v 0.2 1 0.1
v 0.2 1.1 0.1
v -0.1 1 -0.1
v -0.1 1.1 -0.1
v -0.1 1.2 -0.1
v 0.1 1 -0.1
v 0.1 1.1 -0.1
v 0.1 1.2 -0.1
v -0.2 1 -0.2
v -0.2 1.1 -0.2
v -0.1 1 -0.2
v -0.1 1.1 -0.2
v 0.1 1 -0.2
v 0.1 1.1 -0.2
v 0.2 1 -0.2
v 0.2 1.1 -0.2
v -0.4 1 -0.4
v -0.4 1.2 -0.4
v -0.3 1.1 -0.4
v -0.3 1.2 -0.4
v 0.3 1.1 -0.4
v 0.3 1.2 -0.4
v 0.4 1 -0.4
v 0.4 1.2 -0.4
v -0.5 0 -0.5
v -0.5 1 -0.5
v 0.5 0 -0.5
v 0.5 1 -0.5
v -0.5 0 0.5
v 0.5 0 0.5
v -0.5 0 -0.5
v 0.5 0 -0.5
v -0.5 1 0.5
v 0.5 1 0.5
v -0.4 1 0.4
v 0.4 1 0.4
v -0.2 1 0.3
v 0.2 1 0.3
v -0.3 1 0.2
v -0.2 1 0.2
v -0.1 1 0.2
v 0.1 1 0.2
v 0.2 1 0.2
v 0.3 1 0.2
v -0.2 1 0.1
v -0.1 1 0.1
v 0.1 1 0.1
v 0.2 1 0.1
v -0.2 1 -0.1
v -0.1 1 -0.1
v 0.1 1 -0.1
v 0.2 1 -0.1
v -0.3 1 -0.2
v -0.2 1 -0.2
v -0.1 1 -0.2
v 0.1 1 -0.2
v 0.2 1 -0.2
v 0.3 1 -0.2
v -0.2 1 -0.3
v 0.2 1 -0.3
v -0.4 1 -0.4
v 0.4 1 -0.4
v -0.5 1 -0.5
v 0.5 1 -0.5
v -0.3 1.1 0.4
v 0.3 1.1 0.4
v -0.4 1.1 0.3
v -0.3 1.1 0.3
v -0.2 1.1 0.3
v 0.2 1.1 0.3
v 0.3 1.1 0.3
v 0.4 1.1 0.3
v -0.3 1.1 0.2
v -0.2 1.1 0.2
v -0.1 1.1 0.2
v 0.1 1.1 0.2
v 0.2 1.1 0.2
v 0.3 1.1 0.2
v -0.2 1.1 0.1
v -0.1 1.1 0.1
v 0.1 1.1 0.1
v 0.2 1.1 0.1
v -0.2 1.1 -0.1
v -0.1 1.1 -0.1
v 0.1 1.1 -0.1
v 0.2 1.1 -0.1
v -0.3 1.1 -0.2
v -0.2 1.1 -0.2
v -0.1 1.1 -0.2
v 0.1 1.1 -0.2
v 0.2 1.1 -0.2
v 0.3 1.1 -0.2
v -0.4 1.1 -0.3
v -0.3 1.1 -0.3
v -0.2 1.1 -0.3
v 0.2 1.1 -0.3
v 0.3 1.1 -0.3
v 0.4 1.1 -0.3
v -0.3 1.1 -0.4
v 0.3 1.1 -0.4
v -0.4 1.2 0.4
v -0.3 1.2 0.4
v 0.3 1.2 0.4
v 0.4 1.2 0.4
v -0.4 1.2 0.3
v -0.3 1.2 0.3
v 0.3 1.2 0.3
v 0.4 1.2 0.3
v -0.1 1.2 0.1
v 0.1 1.2 0.1
v -0.1 1.2 -0.1
v 0.1 1.2 -0.1
v -0.4 1.2 -0.3
v -0.3 1.2 -0.3
v 0.3 1.2 -0.3
v 0.4 1.2 -0.3
v -0.4 1.2 -0.4
v -0.3 1.2 -0.4
v 0.3 1.2 -0.4
v 0.4 1.2 -0.4

# faces
f 3/2/1 2/2/1 1/2/1
f 4/2/1 2/2/1 3/2/1
f 5/1/1 4/1/1 3/1/1
f 6/2/1 2/2/1 4/2/1
f 6/1/1 4/1/1 5/1/1
f 7/2/1 6/2/1 5/2/1
f 8/2/1 2/2/1 6/2/1
f 8/2/1 6/2/1 7/2/1
f 11/4/1 10/4/1 9/4/1
f 12/4/1 10/4/1 11/4/1
f 13/4/1 11/4/1 9/4/1
f 14/4/1 11/4/1 13/4/1
f 15/4/1 10/4/1 12/4/1
f 16/4/1 10/4/1 15/4/1
f 21/4/1 18/4/1 17/4/1
f 22/4/1 18/4/1 21/4/1
f 23/4/1 20/4/1 19/4/1
f 24/4/1 20/4/1 23/4/1
f 27/4/1 26/4/1 25/4/1
f 28/4/1 26/4/1 27/4/1
f 29/3/1 28/3/1 27/3/1
f 30/3/1 28/3/1 29/3/1
f 35/4/1 32/4/1 31/4/1
f 36/4/1 32/4/1 35/4/1
f 37/4/1 34/4/1 33/4/1
f 38/4/1 34/4/1 37/4/1
f 43/4/1 40/4/1 39/4/1
f 44/4/1 40/4/1 43/4/1
f 45/4/1 42/4/1 41/4/1
f 46/4/1 42/4/1 45/4/1
f 51/4/1 48/4/1 47/4/1
f 52/4/1 48/4/1 51/4/1
f 55/4/1 50/4/1 49/4/1
f 56/4/1 50/4/1 55/4/1
f 57/4/1 54/4/1 53/4/1
f 58/4/1 54/4/1 57/4/1
f 59/4/2 60/4/2 63/4/2
f 63/4/2 60/4/2 64/4/2
f 61/4/2 62/4/2 67/4/2
f 67/4/2 62/4/2 68/4/2
f 65/4/2 66/4/2 69/4/2
f 69/4/2 66/4/2 70/4/2
f 71/4/2 72/4/2 75/4/2
f 75/4/2 72/4/2 76/4/2
f 73/4/2 74/4/2 77/4/2
f 77/4/2 74/4/2 78/4/2
f 79/4/2 80/4/2 83/4/2
f 83/4/2 80/4/2 84/4/2
f 81/4/2 82/4/2 85/4/2
f 85/4/2 82/4/2 86/4/2
f 87/4/2 88/4/2 89/4/2
f 89/4/2 88/4/2 90/4/2
f 89/3/2 90/3/2 91/3/2
f 91/3/2 90/3/2 92/3/2
f 93/4/2 94/4/2 97/4/2
f 97/4/2 94/4/2 98/4/2
f 95/4/2 96/4/2 99/4/2
f 99/4/2 96/4/2 100/4/2
f 101/4/2 102/4/2 103/4/2
f 103/4/2 102/4/2 104/4/2
f 101/4/2 103/4/2 105/4/2
f 105/4/2 103/4/2 106/4/2
f 104/4/2 102/4/2 107/4/2
f 107/4/2 102/4/2 108/4/2
f 109/2/2 110/2/2 111/2/2
f 111/2/2 110/2/2 112/2/2
f 111/1/2 112/1/2 113/1/2
f 112/2/2 110/2/2 114/2/2
f 113/1/2 112/1/2 114/1/2
f 113/2/2 114/2/2 115/2/2
f 114/2/2 110/2/2 116/2/2
f 115/2/2 114/2/2 116/2/2
f 121/2/3 118/2/3 117/2/3
f 122/1/3 119/1/3 118/1/3
f 122/2/3 118/2/3 121/2/3
f 123/2/3 120/2/3 119/2/3
f 123/1/3 119/1/3 122/1/3
f 124/2/3 120/2/3 123/2/3
f 125/6/3 122/6/3 121/6/3
f 125/1/3 123/1/3 122/1/3
f 126/5/3 124/5/3 123/5/3
f 126/1/3 123/1/3 125/1/3
f 127/2/3 120/2/3 124/2/3
f 127/5/3 124/5/3 126/5/3
f 128/7/3 126/7/3 125/7/3
f 128/6/3 125/6/3 121/6/3
f 128/7/3 127/7/3 126/7/3
f 129/2/3 120/2/3 127/2/3
f 129/7/3 127/7/3 128/7/3
f 130/6/3 128/6/3 121/6/3
f 130/5/3 129/5/3 128/5/3
f 131/2/3 120/2/3 129/2/3
f 131/5/3 129/5/3 130/5/3
f 132/6/3 130/6/3 121/6/3
f 132/7/3 131/7/3 130/7/3
f 133/7/3 131/7/3 132/7/3
f 134/2/3 120/2/3 131/2/3
f 134/7/3 131/7/3 133/7/3
f 135/2/3 121/2/3 117/2/3
f 135/6/3 132/6/3 121/6/3
f 136/1/3 133/1/3 132/1/3
f 136/6/3 132/6/3 135/6/3
f 137/5/3 134/5/3 133/5/3
f 137/1/3 133/1/3 136/1/3
f 138/2/3 120/2/3 134/2/3
f 138/5/3 134/5/3 137/5/3
f 139/2/3 135/2/3 117/2/3
f 139/2/3 136/2/3 135/2/3
f 140/1/3 137/1/3 136/1/3
f 140/2/3 136/2/3 139/2/3
f 141/2/3 138/2/3 137/2/3
f 141/1/3 137/1/3 140/1/3
f 142/2/3 120/2/3 138/2/3
f 142/2/3 138/2/3 141/2/3
f 145/4/3 144/4/3 143/4/3
f 146/4/3 144/4/3 145/4/3
f 147/4/3 145/4/3 143/4/3
f 149/4/3 147/4/3 143/4/3
f 149/4/3 148/4/3 147/4/3
f 150/4/3 148/4/3 149/4/3
f 153/4/3 152/4/3 151/4/3
f 154/4/3 152/4/3 153/4/3
f 157/4/3 156/4/3 155/4/3
f 158/4/3 156/4/3 157/4/3
f 162/4/3 160/4/3 159/4/3
f 163/3/3 161/3/3 160/3/3
f 163/4/3 160/4/3 162/4/3
f 164/3/3 161/3/3 163/3/3
f 167/4/3 166/4/3 165/4/3
f 168/4/3 166/4/3 167/4/3
f 171/4/3 170/4/3 169/4/3
f 172/4/3 170/4/3 171/4/3
f 175/4/3 174/4/3 173/4/3
f 176/4/3 174/4/3 175/4/3
f 179/4/3 178/4/3 177/4/3
f 180/4/3 178/4/3 179/4/3
f 183/4/3 182/4/3 181/4/3
f 184/4/3 182/4/3 183/4/3
f 187/4/3 186/4/3 185/4/3
f 188/4/3 186/4/3 187/4/3
f 191/4/3 190/4/3 189/4/3
f 192/4/3 190/4/3 191/4/3
f 193/4/4 194/4/4 195/4/4
f 195/4/4 194/4/4 196/4/4
f 197/4/4 198/4/4 199/4/4
f 199/4/4 198/4/4 200/4/4
f 201/4/4 202/4/4 203/4/4
f 203/4/4 202/4/4 204/4/4
f 205/4/4 206/4/4 207/4/4
f 207/4/4 206/4/4 208/4/4
f 209/4/4 210/4/4 211/4/4
f 211/4/4 210/4/4 212/4/4
f 213/4/4 214/4/4 215/4/4
f 215/4/4 214/4/4 216/4/4
f 217/4/4 218/4/4 219/4/4
f 219/4/4 218/4/4 220/4/4
f 221/4/4 222/4/4 224/4/4
f 222/3/4 223/3/4 225/3/4
f 224/4/4 222/4/4 225/4/4
f 225/3/4 223/3/4 226/3/4
f 227/4/4 228/4/4 229/4/4
f 229/4/4 228/4/4 230/4/4
f 231/4/4 232/4/4 233/4/4
f 233/4/4 232/4/4 234/4/4
f 235/4/4 236/4/4 237/4/4
f 237/4/4 236/4/4 238/4/4
f 235/4/4 237/4/4 239/4/4
f 235/4/4 239/4/4 241/4/4
f 239/4/4 240/4/4 241/4/4
f 241/4/4 240/4/4 242/4/4
f 243/2/4 244/2/4 245/2/4
f 245/2/4 244/2/4 246/2/4
f 249/2/5 248/2/5 247/2/5
f 250/2/5 248/2/5 249/2/5
f 251/2/6 252/2/6 253/2/6
f 253/2/6 252/2/6 254/2/6
f 255/2/6 256/2/6 258/2/6
f 258/2/6 256/2/6 259/2/6
f 259/2/6 256/2/6 260/2/6
f 260/2/6 256/2/6 261/2/6
f 257/2/6 258/2/6 263/2/6
f 259/2/6 260/2/6 264/2/6
f 264/2/6 260/2/6 265/2/6
f 261/2/6 262/2/6 266/2/6
f 257/2/6 263/2/6 267/2/6
f 263/2/6 264/2/6 267/2/6
f 267/2/6 264/2/6 268/2/6
f 265/2/6 266/2/6 269/2/6
f 266/2/6 262/2/6 270/2/6
f 269/2/6 266/2/6 270/2/6
f 257/2/6 267/2/6 271/2/6
f 271/2/6 267/2/6 272/2/6
f 268/2/6 269/2/6 273/2/6
f 273/2/6 269/2/6 274/2/6
f 270/2/6 262/2/6 275/2/6
f 275/2/6 262/2/6 276/2/6
f 273/2/6 274/2/6 277/2/6
f 274/2/6 275/2/6 277/2/6
f 272/2/6 273/2/6 277/2/6
f 277/2/6 275/2/6 278/2/6
f 251/2/6 253/2/6 279/2/6
f 254/2/6 252/2/6 280/2/6
f 251/2/6 279/2/6 281/2/6
f 279/2/6 280/2/6 281/2/6
f 280/2/6 252/2/6 282/2/6
f 281/2/6 280/2/6 282/2/6
f 283/4/6 284/4/6 286/4/6
f 286/4/6 284/4/6 287/4/6
f 287/4/6 284/4/6 288/4/6
f 288/4/6 284/4/6 289/4/6
f 285/4/6 286/4/6 291/4/6
f 286/4/6 287/4/6 291/4/6
f 291/4/6 287/4/6 292/4/6
f 289/4/6 290/4/6 295/4/6
f 288/4/6 289/4/6 295/4/6
f 295/4/6 290/4/6 296/4/6
f 292/4/6 293/4/6 297/4/6
f 297/4/6 293/4/6 298/4/6
f 294/4/6 295/4/6 299/4/6
f 299/4/6 295/4/6 300/4/6
f 285/4/6 291/4/6 305/4/6
f 301/4/6 302/4/6 306/4/6
f 306/4/6 302/4/6 307/4/6
f 303/4/6 304/4/6 308/4/6
f 308/4/6 304/4/6 309/4/6
f 296/4/6 290/4/6 310/4/6
f 285/4/6 305/4/6 311/4/6
f 305/4/6 306/4/6 311/4/6
f 311/4/6 306/4/6 312/4/6
f 312/4/6 306/4/6 313/4/6
f 309/4/6 310/4/6 314/4/6
f 310/4/6 290/4/6 315/4/6
f 314/4/6 310/4/6 315/4/6
f 315/4/6 290/4/6 316/4/6
f 312/4/6 313/4/6 317/4/6
f 313/4/6 314/4/6 317/4/6
f 314/4/6 315/4/6 317/4/6
f 317/4/6 315/4/6 318/4/6
f 319/4/6 320/4/6 323/4/6
f 323/4/6 320/4/6 324/4/6
f 321/4/6 322/4/6 325/4/6
f 325/4/6 322/4/6 326/4/6
f 327/3/6 328/3/6 329/3/6
f 329/3/6 328/3/6 330/3/6
f 331/4/6 332/4/6 335/4/6
f 335/4/6 332/4/6 336/4/6
f 333/4/6 334/4/6 337/4/6
f 337/4/6 334/4/6 338/4/6
