# MagicaVoxel @ Ephtracy

# group
o 

# material
mtllib CatMob.mtl
usemtl palette

# normals
vn -1 0 0
vn 1 0 0
vn 0 0 1
vn 0 0 -1
vn 0 -1 0
vn 0 1 0

# texcoords
vt 0.00195313 0.5
vt 0.0292969 0.5
vt 0.271484 0.5
vt 0.560547 0.5
vt 0.916016 0.5
vt 0.958984 0.5
vt 0.994141 0.5

# verts
v -0.5 0 0.5
v -0.5 0 -0.5
v -0.5 0.1 0.4
v -0.5 0.1 0.3
v -0.5 0.1 0.1
v -0.5 0.2 0.5
v -0.5 0.2 0.4
v -0.5 0.2 0.3
v -0.5 0.3 0.5
v -0.5 0.3 0.4
v -0.5 0.3 0.3
v -0.5 0.3 0.1
v -0.5 0.4 -0.1
v -0.5 0.4 -0.3
v -0.5 0.5 -0.1
v -0.5 0.5 -0.3
v -0.5 0.7 0.2
v -0.5 0.7 0
v -0.5 0.7 -0.3
v -0.5 0.7 -0.5
v -0.5 0.8 -0.3
v -0.5 0.8 -0.5
v -0.5 0.9 0.5
v -0.5 0.9 0.3
v -0.5 0.9 0.2
v -0.5 0.9 0
v -0.5 1 0.5
v -0.5 1 0.3
v -0.5 1 -0.5
v -0.4 1 0.3
v -0.4 1 0
v -0.4 1.1 0.3
v -0.4 1.1 0
v -0.3 1.1 0.3
v -0.3 1.1 0
v -0.3 1.2 0.3
v -0.3 1.2 0
v 0.1 1 0.3
v 0.1 1 0
v 0.1 1.1 0.3
v 0.1 1.1 0
v 0.2 1.1 0.3
v 0.2 1.1 0
v 0.2 1.2 0.3
v 0.2 1.2 0
v -0.2 1.1 0.3
v -0.2 1.1 0
v -0.2 1.2 0.3
v -0.2 1.2 0
v -0.1 1 0.3
v -0.1 1 0.2
v -0.1 1 0.1
v -0.1 1 0
v -0.1 1.1 0.3
v -0.1 1.1 0
v 0.3 1.1 0.3
v 0.3 1.1 0
v 0.3 1.2 0.3
v 0.3 1.2 0
v 0.4 1 0.3
v 0.4 1 0
v 0.4 1.1 0.3
v 0.4 1.1 0
v 0.5 0 0.5
v 0.5 0 -0.5
v 0.5 0.1 0.3
v 0.5 0.1 0.1
v 0.5 0.1 -0.2
v 0.5 0.1 -0.3
v 0.5 0.2 0.3
v 0.5 0.2 0.1
v 0.5 0.2 -0.2
v 0.5 0.2 -0.3
v 0.5 0.3 0.3
v 0.5 0.3 0.1
v 0.5 0.4 0.3
v 0.5 0.4 0.1
v 0.5 0.4 -0.2
v 0.5 0.4 -0.4
v 0.5 0.6 -0.2
v 0.5 0.6 -0.4
v 0.5 0.7 0.3
v 0.5 0.7 0.1
v 0.5 0.8 -0.2
v 0.5 0.8 -0.4
v 0.5 0.9 0.5
v 0.5 0.9 0.4
v 0.5 0.9 0.3
v 0.5 0.9 0.1
v 0.5 0.9 -0.2
v 0.5 0.9 -0.4
v 0.5 0.9 -0.5
v 0.5 1 0.5
v 0.5 1 0.4
v 0.5 1 -0.4
v 0.5 1 -0.5
v -0.5 0 0.5
v -0.5 0.2 0.5
v -0.5 0.3 0.5
v -0.5 0.9 0.5
v -0.5 1 0.5
v -0.4 0 0.5
v -0.4 0.1 0.5
v -0.4 0.2 0.5
v -0.4 0.3 0.5
v -0.4 0.4 0.5
v -0.4 0.5 0.5
v -0.3 0.5 0.5
v -0.3 0.9 0.5
v -0.3 1 0.5
v -0.2 0.4 0.5
v -0.2 0.5 0.5
v -0.2 0.9 0.5
v -0.1 0 0.5
v -0.1 0.1 0.5
v 0 0 0.5
v 0 0.1 0.5
v 0.1 0 0.5
v 0.1 0.1 0.5
v 0.2 0.1 0.5
v 0.2 0.3 0.5
v 0.2 0.4 0.5
v 0.2 0.5 0.5
v 0.2 0.9 0.5
v 0.3 0.5 0.5
v 0.3 0.9 0.5
v 0.4 0.1 0.5
v 0.4 0.3 0.5
v 0.4 0.4 0.5
v 0.4 0.5 0.5
v 0.4 0.9 0.5
v 0.4 1 0.5
v 0.5 0 0.5
v 0.5 0.9 0.5
v 0.5 1 0.5
v -0.4 1 0.3
v -0.4 1.1 0.3
v -0.3 1 0.3
v -0.3 1.1 0.3
v -0.3 1.2 0.3
v -0.2 1 0.3
v -0.2 1.1 0.3
v -0.2 1.2 0.3
v -0.1 1 0.3
v -0.1 1.1 0.3
v 0.1 1 0.3
v 0.1 1.1 0.3
v 0.2 1 0.3
v 0.2 1.1 0.3
v 0.2 1.2 0.3
v 0.3 1 0.3
v 0.3 1.1 0.3
v 0.3 1.2 0.3
v 0.4 1 0.3
v 0.4 1.1 0.3
v -0.4 1 0
v -0.4 1.1 0
v -0.3 1 0
v -0.3 1.1 0
v -0.3 1.2 0
v -0.2 1 0
v -0.2 1.1 0
v -0.2 1.2 0
v -0.1 1 0
v -0.1 1.1 0
v 0.1 1 0
v 0.1 1.1 0
v 0.2 1 0
v 0.2 1.1 0
v 0.2 1.2 0
v 0.3 1 0
v 0.3 1.1 0
v 0.3 1.2 0
v 0.4 1 0
v 0.4 1.1 0
v -0.5 0 -0.5
v -0.5 0.7 -0.5
v -0.5 0.8 -0.5
v -0.5 1 -0.5
v -0.4 0.1 -0.5
v -0.4 0.2 -0.5
v -0.4 0.4 -0.5
v -0.4 0.7 -0.5
v -0.4 0.8 -0.5
v -0.4 0.9 -0.5
v -0.4 1 -0.5
v -0.3 0.2 -0.5
v -0.3 0.4 -0.5
v -0.2 0.9 -0.5
v -0.2 1 -0.5
v -0.1 0.1 -0.5
v -0.1 0.2 -0.5
v 0 0.1 -0.5
v 0 0.2 -0.5
v 0 0.4 -0.5
v 0 0.5 -0.5
v 0 0.6 -0.5
v 0 0.7 -0.5
v 0.1 0.6 -0.5
v 0.1 0.7 -0.5
v 0.2 0.1 -0.5
v 0.2 0.3 -0.5
v 0.2 0.4 -0.5
v 0.2 0.5 -0.5
v 0.2 0.8 -0.5
v 0.2 0.9 -0.5
v 0.4 0.1 -0.5
v 0.4 0.3 -0.5
v 0.4 0.8 -0.5
v 0.4 0.9 -0.5
v 0.4 1 -0.5
v 0.5 0 -0.5
v 0.5 0.9 -0.5
v 0.5 1 -0.5
v -0.5 0 0.5
v -0.4 0 0.5
v -0.1 0 0.5
v 0 0 0.5
v 0.1 0 0.5
v 0.5 0 0.5
v -0.4 0 0.4
v -0.1 0 0.4
v 0 0 0.4
v 0.1 0 0.4
v 0.2 0 0.4
v 0.4 0 0.4
v 0.2 0 0.3
v 0.4 0 0.3
v -0.5 0 -0.5
v 0.5 0 -0.5
v -0.5 1 0.5
v -0.3 1 0.5
v 0.4 1 0.5
v 0.5 1 0.5
v -0.4 1 0.4
v -0.3 1 0.4
v 0.4 1 0.4
v 0.5 1 0.4
v -0.5 1 0.3
v -0.4 1 0.3
v -0.3 1 0.3
v -0.2 1 0.3
v -0.1 1 0.3
v 0.1 1 0.3
v 0.2 1 0.3
v 0.3 1 0.3
v 0.4 1 0.3
v -0.1 1 0.2
v 0 1 0.2
v -0.1 1 0.1
v 0 1 0.1
v -0.4 1 0
v -0.3 1 0
v -0.2 1 0
v -0.1 1 0
v 0.1 1 0
v 0.2 1 0
v 0.3 1 0
v 0.4 1 0
v -0.3 1 -0.1
v -0.1 1 -0.1
v 0.3 1 -0.1
v 0.4 1 -0.1
v -0.3 1 -0.3
v -0.1 1 -0.3
v 0.2 1 -0.3
v 0.4 1 -0.3
v -0.4 1 -0.4
v -0.2 1 -0.4
v 0.2 1 -0.4
v 0.4 1 -0.4
v 0.5 1 -0.4
v -0.5 1 -0.5
v -0.4 1 -0.5
v -0.2 1 -0.5
v 0.4 1 -0.5
v 0.5 1 -0.5
v -0.4 1.1 0.3
v -0.3 1.1 0.3
v -0.2 1.1 0.3
v -0.1 1.1 0.3
v 0.1 1.1 0.3
v 0.2 1.1 0.3
v 0.3 1.1 0.3
v 0.4 1.1 0.3
v -0.4 1.1 0
v -0.3 1.1 0
v -0.2 1.1 0
v -0.1 1.1 0
v 0.1 1.1 0
v 0.2 1.1 0
v 0.3 1.1 0
v 0.4 1.1 0
v -0.3 1.2 0.3
v -0.2 1.2 0.3
v 0.2 1.2 0.3
v 0.3 1.2 0.3
v -0.3 1.2 0
v -0.2 1.2 0
v 0.2 1.2 0
v 0.3 1.2 0

# faces
f 3/1/1 2/1/1 1/1/1
f 4/1/1 2/1/1 3/1/1
f 5/1/1 2/1/1 4/1/1
f 6/1/1 3/1/1 1/1/1
f 7/7/1 4/7/1 3/7/1
f 7/1/1 3/1/1 6/1/1
f 8/3/1 5/3/1 4/3/1
f 8/7/1 4/7/1 7/7/1
f 9/3/1 7/3/1 6/3/1
f 10/1/1 8/1/1 7/1/1
f 10/3/1 7/3/1 9/3/1
f 11/3/1 5/3/1 8/3/1
f 11/1/1 8/1/1 10/1/1
f 12/1/1 2/1/1 5/1/1
f 12/3/1 5/3/1 11/3/1
f 13/1/1 11/1/1 10/1/1
f 13/1/1 2/1/1 12/1/1
f 13/1/1 12/1/1 11/1/1
f 13/1/1 10/1/1 9/1/1
f 14/1/1 2/1/1 13/1/1
f 15/1/1 13/1/1 9/1/1
f 15/3/1 14/3/1 13/3/1
f 16/1/1 2/1/1 14/1/1
f 16/3/1 14/3/1 15/3/1
f 17/1/1 15/1/1 9/1/1
f 17/1/1 16/1/1 15/1/1
f 18/1/1 16/1/1 17/1/1
f 19/1/1 2/1/1 16/1/1
f 19/1/1 16/1/1 18/1/1
f 20/1/1 2/1/1 19/1/1
f 21/1/1 19/1/1 18/1/1
f 21/7/1 20/7/1 19/7/1
f 22/7/1 20/7/1 21/7/1
f 23/1/1 17/1/1 9/1/1
f 24/1/1 17/1/1 23/1/1
f 25/7/1 18/7/1 17/7/1
f 25/1/1 17/1/1 24/1/1
f 26/1/1 21/1/1 18/1/1
f 26/7/1 18/7/1 25/7/1
f 26/1/1 22/1/1 21/1/1
f 27/3/1 24/3/1 23/3/1
f 28/1/1 25/1/1 24/1/1
f 28/3/1 24/3/1 27/3/1
f 28/1/1 26/1/1 25/1/1
f 29/1/1 22/1/1 26/1/1
f 29/1/1 26/1/1 28/1/1
f 32/7/1 31/7/1 30/7/1
f 33/7/1 31/7/1 32/7/1
f 36/7/1 35/7/1 34/7/1
f 37/7/1 35/7/1 36/7/1
f 40/7/1 39/7/1 38/7/1
f 41/7/1 39/7/1 40/7/1
f 44/7/1 43/7/1 42/7/1
f 45/7/1 43/7/1 44/7/1
f 46/7/2 47/7/2 48/7/2
f 48/7/2 47/7/2 49/7/2
f 50/7/2 51/7/2 54/7/2
f 52/7/2 53/7/2 54/7/2
f 51/7/2 52/7/2 54/7/2
f 54/7/2 53/7/2 55/7/2
f 56/7/2 57/7/2 58/7/2
f 58/7/2 57/7/2 59/7/2
f 60/7/2 61/7/2 62/7/2
f 62/7/2 61/7/2 63/7/2
f 64/1/2 65/1/2 66/1/2
f 66/1/2 65/1/2 67/1/2
f 67/1/2 65/1/2 68/1/2
f 68/1/2 65/1/2 69/1/2
f 64/1/2 66/1/2 70/1/2
f 66/7/2 67/7/2 70/7/2
f 67/1/2 68/1/2 71/1/2
f 70/7/2 67/7/2 71/7/2
f 68/3/2 69/3/2 72/3/2
f 71/1/2 68/1/2 72/1/2
f 69/1/2 65/1/2 73/1/2
f 72/3/2 69/3/2 73/3/2
f 71/1/2 72/1/2 74/1/2
f 70/1/2 71/1/2 74/1/2
f 72/1/2 73/1/2 74/1/2
f 64/1/2 70/1/2 74/1/2
f 74/1/2 73/1/2 75/1/2
f 64/1/2 74/1/2 76/1/2
f 74/3/2 75/3/2 76/3/2
f 75/1/2 73/1/2 77/1/2
f 76/3/2 75/3/2 77/3/2
f 77/1/2 73/1/2 78/1/2
f 73/1/2 65/1/2 79/1/2
f 78/1/2 73/1/2 79/1/2
f 77/1/2 78/1/2 80/1/2
f 76/1/2 77/1/2 80/1/2
f 78/3/2 79/3/2 80/3/2
f 79/1/2 65/1/2 81/1/2
f 80/3/2 79/3/2 81/3/2
f 76/1/2 80/1/2 82/1/2
f 64/1/2 76/1/2 82/1/2
f 80/1/2 81/1/2 82/1/2
f 82/1/2 81/1/2 83/1/2
f 83/1/2 81/1/2 84/1/2
f 81/1/2 65/1/2 85/1/2
f 84/1/2 81/1/2 85/1/2
f 64/1/2 82/1/2 86/1/2
f 86/1/2 82/1/2 87/1/2
f 82/3/2 83/3/2 88/3/2
f 87/1/2 82/1/2 88/1/2
f 83/1/2 84/1/2 89/1/2
f 88/3/2 83/3/2 89/3/2
f 84/7/2 85/7/2 90/7/2
f 89/1/2 84/1/2 90/1/2
f 85/1/2 65/1/2 91/1/2
f 90/7/2 85/7/2 91/7/2
f 91/1/2 65/1/2 92/1/2
f 86/3/2 87/3/2 93/3/2
f 87/1/2 88/1/2 94/1/2
f 93/3/2 87/3/2 94/3/2
f 89/1/2 90/1/2 94/1/2
f 88/1/2 89/1/2 94/1/2
f 90/1/2 91/1/2 94/1/2
f 91/5/2 92/5/2 95/5/2
f 94/1/2 91/1/2 95/1/2
f 95/5/2 92/5/2 96/5/2
f 102/1/3 98/1/3 97/1/3
f 103/1/3 98/1/3 102/1/3
f 104/3/3 99/3/3 98/3/3
f 104/1/3 98/1/3 103/1/3
f 105/1/3 100/1/3 99/1/3
f 105/3/3 99/3/3 104/3/3
f 106/1/3 100/1/3 105/1/3
f 107/1/3 100/1/3 106/1/3
f 108/2/3 107/2/3 106/2/3
f 108/1/3 100/1/3 107/1/3
f 109/3/3 101/3/3 100/3/3
f 109/1/3 100/1/3 108/1/3
f 110/3/3 101/3/3 109/3/3
f 111/2/3 108/2/3 106/2/3
f 111/1/3 104/1/3 103/1/3
f 111/1/3 105/1/3 104/1/3
f 111/1/3 106/1/3 105/1/3
f 112/7/3 109/7/3 108/7/3
f 112/2/3 108/2/3 111/2/3
f 113/1/3 110/1/3 109/1/3
f 113/7/3 109/7/3 112/7/3
f 114/7/3 103/7/3 102/7/3
f 115/1/3 112/1/3 111/1/3
f 115/7/3 103/7/3 114/7/3
f 115/1/3 111/1/3 103/1/3
f 115/1/3 113/1/3 112/1/3
f 116/1/3 115/1/3 114/1/3
f 117/1/3 113/1/3 115/1/3
f 117/1/3 115/1/3 116/1/3
f 118/3/3 117/3/3 116/3/3
f 119/1/3 113/1/3 117/1/3
f 119/3/3 117/3/3 118/3/3
f 120/1/3 119/1/3 118/1/3
f 120/1/3 113/1/3 119/1/3
f 121/1/3 113/1/3 120/1/3
f 122/1/3 113/1/3 121/1/3
f 123/1/3 113/1/3 122/1/3
f 124/1/3 110/1/3 113/1/3
f 124/1/3 113/1/3 123/1/3
f 125/2/3 123/2/3 122/2/3
f 125/7/3 124/7/3 123/7/3
f 126/1/3 110/1/3 124/1/3
f 126/7/3 124/7/3 125/7/3
f 127/1/3 120/1/3 118/1/3
f 127/3/3 121/3/3 120/3/3
f 128/1/3 122/1/3 121/1/3
f 128/3/3 121/3/3 127/3/3
f 129/2/3 125/2/3 122/2/3
f 129/1/3 122/1/3 128/1/3
f 130/1/3 126/1/3 125/1/3
f 130/2/3 125/2/3 129/2/3
f 131/1/3 110/1/3 126/1/3
f 131/1/3 126/1/3 130/1/3
f 132/1/3 110/1/3 131/1/3
f 133/1/3 128/1/3 127/1/3
f 133/1/3 130/1/3 129/1/3
f 133/1/3 129/1/3 128/1/3
f 133/1/3 131/1/3 130/1/3
f 133/1/3 127/1/3 118/1/3
f 134/3/3 132/3/3 131/3/3
f 134/1/3 131/1/3 133/1/3
f 135/3/3 132/3/3 134/3/3
f 138/7/3 137/7/3 136/7/3
f 139/7/3 137/7/3 138/7/3
f 141/5/3 139/5/3 138/5/3
f 142/7/3 140/7/3 139/7/3
f 142/5/3 139/5/3 141/5/3
f 143/7/3 140/7/3 142/7/3
f 144/7/3 142/7/3 141/7/3
f 145/7/3 142/7/3 144/7/3
f 148/7/3 147/7/3 146/7/3
f 149/7/3 147/7/3 148/7/3
f 151/5/3 149/5/3 148/5/3
f 152/7/3 150/7/3 149/7/3
f 152/5/3 149/5/3 151/5/3
f 153/7/3 150/7/3 152/7/3
f 154/7/3 152/7/3 151/7/3
f 155/7/3 152/7/3 154/7/3
f 156/7/4 157/7/4 158/7/4
f 158/7/4 157/7/4 159/7/4
f 158/5/4 159/5/4 161/5/4
f 159/7/4 160/7/4 162/7/4
f 161/5/4 159/5/4 162/5/4
f 162/7/4 160/7/4 163/7/4
f 161/7/4 162/7/4 164/7/4
f 164/7/4 162/7/4 165/7/4
f 166/7/4 167/7/4 168/7/4
f 168/7/4 167/7/4 169/7/4
f 168/5/4 169/5/4 171/5/4
f 169/7/4 170/7/4 172/7/4
f 171/5/4 169/5/4 172/5/4
f 172/7/4 170/7/4 173/7/4
f 171/7/4 172/7/4 174/7/4
f 174/7/4 172/7/4 175/7/4
f 176/1/4 177/1/4 180/1/4
f 180/1/4 177/1/4 181/1/4
f 181/1/4 177/1/4 182/1/4
f 177/7/4 178/7/4 183/7/4
f 182/1/4 177/1/4 183/1/4
f 178/1/4 179/1/4 184/1/4
f 183/7/4 178/7/4 184/7/4
f 184/1/4 179/1/4 185/1/4
f 185/1/4 179/1/4 186/1/4
f 181/3/4 182/3/4 187/3/4
f 180/5/4 181/5/4 187/5/4
f 182/5/4 183/5/4 188/5/4
f 187/3/4 182/3/4 188/3/4
f 183/5/4 184/5/4 188/5/4
f 184/5/4 185/5/4 188/5/4
f 185/3/4 186/3/4 189/3/4
f 188/5/4 185/5/4 189/5/4
f 187/5/4 188/5/4 189/5/4
f 189/3/4 186/3/4 190/3/4
f 180/5/4 187/5/4 191/5/4
f 176/1/4 180/1/4 191/1/4
f 187/5/4 189/5/4 191/5/4
f 191/5/4 189/5/4 192/5/4
f 176/1/4 191/1/4 193/1/4
f 191/3/4 192/3/4 193/3/4
f 192/5/4 189/5/4 194/5/4
f 193/3/4 192/3/4 194/3/4
f 194/5/4 189/5/4 195/5/4
f 195/5/4 189/5/4 196/5/4
f 196/5/4 189/5/4 197/5/4
f 197/5/4 189/5/4 198/5/4
f 196/5/4 197/5/4 199/5/4
f 197/3/4 198/3/4 199/3/4
f 198/5/4 189/5/4 200/5/4
f 199/3/4 198/3/4 200/3/4
f 176/1/4 193/1/4 201/1/4
f 193/5/4 194/5/4 201/5/4
f 194/5/4 195/5/4 201/5/4
f 201/5/4 195/5/4 202/5/4
f 195/3/4 196/3/4 203/3/4
f 202/5/4 195/5/4 203/5/4
f 199/5/4 200/5/4 204/5/4
f 203/3/4 196/3/4 204/3/4
f 196/5/4 199/5/4 204/5/4
f 200/5/4 189/5/4 205/5/4
f 204/5/4 200/5/4 205/5/4
f 189/1/4 190/1/4 206/1/4
f 205/5/4 189/5/4 206/5/4
f 176/1/4 201/1/4 207/1/4
f 201/7/4 202/7/4 207/7/4
f 204/5/4 205/5/4 208/5/4
f 207/7/4 202/7/4 208/7/4
f 203/5/4 204/5/4 208/5/4
f 202/5/4 203/5/4 208/5/4
f 205/7/4 206/7/4 209/7/4
f 208/5/4 205/5/4 209/5/4
f 206/1/4 190/1/4 210/1/4
f 209/7/4 206/7/4 210/7/4
f 210/1/4 190/1/4 211/1/4
f 176/1/4 207/1/4 212/1/4
f 207/1/4 208/1/4 212/1/4
f 208/1/4 209/1/4 212/1/4
f 209/1/4 210/1/4 212/1/4
f 210/5/4 211/5/4 213/5/4
f 212/1/4 210/1/4 213/1/4
f 213/5/4 211/5/4 214/5/4
f 221/1/5 216/1/5 215/1/5
f 221/7/5 217/7/5 216/7/5
f 222/1/5 218/1/5 217/1/5
f 222/7/5 217/7/5 221/7/5
f 223/3/5 219/3/5 218/3/5
f 223/1/5 218/1/5 222/1/5
f 224/1/5 220/1/5 219/1/5
f 224/3/5 219/3/5 223/3/5
f 225/1/5 220/1/5 224/1/5
f 226/1/5 220/1/5 225/1/5
f 227/1/5 223/1/5 222/1/5
f 227/1/5 222/1/5 221/1/5
f 227/3/5 226/3/5 225/3/5
f 227/1/5 225/1/5 224/1/5
f 227/1/5 224/1/5 223/1/5
f 228/1/5 220/1/5 226/1/5
f 228/3/5 226/3/5 227/3/5
f 229/1/5 227/1/5 221/1/5
f 229/1/5 221/1/5 215/1/5
f 229/1/5 228/1/5 227/1/5
f 230/1/5 220/1/5 228/1/5
f 230/1/5 228/1/5 229/1/5
f 231/3/6 232/3/6 235/3/6
f 232/1/6 233/1/6 236/1/6
f 235/3/6 232/3/6 236/3/6
f 233/3/6 234/3/6 237/3/6
f 236/1/6 233/1/6 237/1/6
f 237/3/6 234/3/6 238/3/6
f 231/3/6 235/3/6 239/3/6
f 235/1/6 236/1/6 240/1/6
f 239/3/6 235/3/6 240/3/6
f 236/1/6 237/1/6 240/1/6
f 237/1/6 238/1/6 240/1/6
f 240/1/6 238/1/6 241/1/6
f 241/1/6 238/1/6 242/1/6
f 242/1/6 238/1/6 243/1/6
f 243/1/6 238/1/6 244/1/6
f 244/1/6 238/1/6 245/1/6
f 245/1/6 238/1/6 246/1/6
f 246/1/6 238/1/6 247/1/6
f 243/1/6 244/1/6 248/1/6
f 248/1/6 244/1/6 249/1/6
f 248/7/6 249/7/6 250/7/6
f 249/1/6 244/1/6 251/1/6
f 250/7/6 249/7/6 251/7/6
f 239/1/6 240/1/6 252/1/6
f 250/1/6 251/1/6 255/1/6
f 251/1/6 244/1/6 256/1/6
f 255/1/6 251/1/6 256/1/6
f 247/1/6 238/1/6 259/1/6
f 254/1/6 255/1/6 260/1/6
f 257/1/6 258/1/6 260/1/6
f 253/1/6 254/1/6 260/1/6
f 252/1/6 253/1/6 260/1/6
f 256/1/6 257/1/6 260/1/6
f 255/1/6 256/1/6 260/1/6
f 260/1/6 258/1/6 261/1/6
f 258/3/6 259/3/6 262/3/6
f 261/1/6 258/1/6 262/1/6
f 259/1/6 238/1/6 263/1/6
f 262/3/6 259/3/6 263/3/6
f 260/3/6 261/3/6 264/3/6
f 252/1/6 260/1/6 264/1/6
f 261/1/6 262/1/6 265/1/6
f 264/3/6 261/3/6 265/3/6
f 262/1/6 263/1/6 265/1/6
f 265/1/6 263/1/6 266/1/6
f 263/1/6 238/1/6 267/1/6
f 266/1/6 263/1/6 267/1/6
f 265/1/6 266/1/6 268/1/6
f 252/1/6 264/1/6 268/1/6
f 239/1/6 252/1/6 268/1/6
f 264/1/6 265/1/6 268/1/6
f 268/1/6 266/1/6 269/1/6
f 266/7/6 267/7/6 270/7/6
f 269/1/6 266/1/6 270/1/6
f 267/1/6 238/1/6 271/1/6
f 270/7/6 267/7/6 271/7/6
f 271/1/6 238/1/6 272/1/6
f 239/1/6 268/1/6 273/1/6
f 268/3/6 269/3/6 274/3/6
f 273/1/6 268/1/6 274/1/6
f 269/1/6 270/1/6 275/1/6
f 274/3/6 269/3/6 275/3/6
f 270/1/6 271/1/6 275/1/6
f 271/5/6 272/5/6 276/5/6
f 275/1/6 271/1/6 276/1/6
f 276/5/6 272/5/6 277/5/6
f 278/7/6 279/7/6 286/7/6
f 286/7/6 279/7/6 287/7/6
f 280/7/6 281/7/6 288/7/6
f 288/7/6 281/7/6 289/7/6
f 282/7/6 283/7/6 290/7/6
f 290/7/6 283/7/6 291/7/6
f 284/7/6 285/7/6 292/7/6
f 292/7/6 285/7/6 293/7/6
f 294/7/6 295/7/6 298/7/6
f 298/7/6 295/7/6 299/7/6
f 296/7/6 297/7/6 300/7/6
f 300/7/6 297/7/6 301/7/6
