# MagicaVoxel @ Ephtracy

# group
o 

# material
mtllib FlowerMob.mtl
usemtl palette

# normals
vn -1 0 0
vn 1 0 0
vn 0 0 1
vn 0 0 -1
vn 0 -1 0
vn 0 1 0

# texcoords
vt 0.0292969 0.5
vt 0.306641 0.5
vt 0.318359 0.5
vt 0.322266 0.5
vt 0.427734 0.5
vt 0.583984 0.5
vt 0.916016 0.5
vt 0.994141 0.5

# verts
v -0.5 0 0.5
v -0.5 0 -0.5
v -0.5 0.1 0.4
v -0.5 0.1 -0.4
v -0.5 0.9 0.4
v -0.5 0.9 -0.4
v -0.5 1 0.5
v -0.5 1 -0.5
v -0.3 1 -0.1
v -0.3 1 -0.4
v -0.3 1.1 -0.1
v -0.3 1.1 -0.4
v -0.2 1 0.5
v -0.2 1 0.4
v -0.2 1 0
v -0.2 1 -0.1
v -0.2 1 -0.4
v -0.2 1 -0.5
v -0.2 1.1 0.5
v -0.2 1.1 0.4
v -0.2 1.1 0
v -0.2 1.1 -0.1
v -0.2 1.1 -0.4
v -0.2 1.1 -0.5
v -0.1 1 0.4
v -0.1 1 0
v -0.1 1.1 0.4
v -0.1 1.1 0
v 0.1 1 0.4
v 0.1 1 0
v 0.1 1.1 0.4
v 0.1 1.1 0
v 0.2 1 0.5
v 0.2 1 0.4
v 0.2 1 0
v 0.2 1 -0.1
v 0.2 1 -0.4
v 0.2 1 -0.5
v 0.2 1.1 0.5
v 0.2 1.1 0.4
v 0.2 1.1 0
v 0.2 1.1 -0.1
v 0.2 1.1 -0.4
v 0.2 1.1 -0.5
v 0.3 1 -0.1
v 0.3 1 -0.4
v 0.3 1.1 -0.1
v 0.3 1.1 -0.4
v 0.5 0 0.5
v 0.5 0 -0.5
v 0.5 0.1 0.4
v 0.5 0.1 -0.4
v 0.5 0.9 0.4
v 0.5 0.9 -0.4
v 0.5 1 0.5
v 0.5 1 -0.5
v -0.5 0 0.5
v -0.5 1 0.5
v -0.4 0.1 0.5
v -0.4 0.4 0.5
v -0.4 0.5 0.5
v -0.4 0.9 0.5
v -0.3 0.5 0.5
v -0.3 0.9 0.5
v -0.2 0.4 0.5
v -0.2 0.5 0.5
v -0.2 0.9 0.5
v -0.2 1 0.5
v -0.2 1.1 0.5
v 0.2 0.4 0.5
v 0.2 0.5 0.5
v 0.2 0.9 0.5
v 0.2 1 0.5
v 0.2 1.1 0.5
v 0.3 0.5 0.5
v 0.3 0.9 0.5
v 0.4 0.1 0.5
v 0.4 0.4 0.5
v 0.4 0.5 0.5
v 0.4 0.9 0.5
v 0.5 0 0.5
v 0.5 1 0.5
v -0.2 1 0
v -0.2 1.1 0
v -0.1 1 0
v -0.1 1.1 0
v 0.1 1 0
v 0.1 1.1 0
v 0.2 1 0
v 0.2 1.1 0
v -0.3 1 -0.1
v -0.3 1.1 -0.1
v -0.2 1 -0.1
v -0.2 1.1 -0.1
v 0.2 1 -0.1
v 0.2 1.1 -0.1
v 0.3 1 -0.1
v 0.3 1.1 -0.1
v -0.2 1 0.4
v -0.2 1.1 0.4
v -0.1 1 0.4
v -0.1 1.1 0.4
v 0.1 1 0.4
v 0.1 1.1 0.4
v 0.2 1 0.4
v 0.2 1.1 0.4
v -0.3 1 -0.4
v -0.3 1.1 -0.4
v -0.2 1 -0.4
v -0.2 1.1 -0.4
v 0.2 1 -0.4
v 0.2 1.1 -0.4
v 0.3 1 -0.4
v 0.3 1.1 -0.4
v -0.5 0 -0.5
v -0.5 1 -0.5
v -0.4 0.1 -0.5
v -0.4 0.9 -0.5
v -0.2 1 -0.5
v -0.2 1.1 -0.5
v 0.2 1 -0.5
v 0.2 1.1 -0.5
v 0.4 0.1 -0.5
v 0.4 0.9 -0.5
v 0.5 0 -0.5
v 0.5 1 -0.5
v -0.5 0 0.5
v 0.5 0 0.5
v -0.4 0 0.4
v 0.4 0 0.4
v -0.4 0 -0.4
v 0.4 0 -0.4
v -0.5 0 -0.5
v 0.5 0 -0.5
v -0.5 1 0.5
v -0.2 1 0.5
v 0.2 1 0.5
v 0.5 1 0.5
v -0.4 1 0.4
v -0.2 1 0.4
v -0.1 1 0.4
v 0.1 1 0.4
v 0.2 1 0.4
v 0.4 1 0.4
v -0.2 1 0
v -0.1 1 0
v 0.1 1 0
v 0.2 1 0
v -0.3 1 -0.1
v -0.2 1 -0.1
v 0.2 1 -0.1
v 0.3 1 -0.1
v -0.4 1 -0.4
v -0.3 1 -0.4
v -0.2 1 -0.4
v 0.2 1 -0.4
v 0.3 1 -0.4
v 0.4 1 -0.4
v -0.5 1 -0.5
v -0.2 1 -0.5
v 0.2 1 -0.5
v 0.5 1 -0.5
v -0.2 1.1 0.5
v 0.2 1.1 0.5
v -0.2 1.1 0.4
v -0.1 1.1 0.4
v 0.1 1.1 0.4
v 0.2 1.1 0.4
v -0.2 1.1 0
v -0.1 1.1 0
v 0.1 1.1 0
v 0.2 1.1 0
v -0.3 1.1 -0.1
v -0.2 1.1 -0.1
v -0.1 1.1 -0.1
v 0.1 1.1 -0.1
v 0.2 1.1 -0.1
v 0.3 1.1 -0.1
v -0.3 1.1 -0.4
v -0.2 1.1 -0.4
v -0.1 1.1 -0.4
v 0.1 1.1 -0.4
v 0.2 1.1 -0.4
v 0.3 1.1 -0.4
v -0.2 1.1 -0.5
v 0.2 1.1 -0.5

# faces
f 3/4/1 2/4/1 1/4/1
f 4/4/1 2/4/1 3/4/1
f 5/4/1 3/4/1 1/4/1
f 5/3/1 4/3/1 3/3/1
f 6/4/1 2/4/1 4/4/1
f 6/3/1 4/3/1 5/3/1
f 7/4/1 5/4/1 1/4/1
f 7/4/1 6/4/1 5/4/1
f 8/4/1 2/4/1 6/4/1
f 8/4/1 6/4/1 7/4/1
f 11/1/1 10/1/1 9/1/1
f 12/1/1 10/1/1 11/1/1
f 19/6/1 14/6/1 13/6/1
f 20/6/1 14/6/1 19/6/1
f 21/1/1 16/1/1 15/1/1
f 22/1/1 16/1/1 21/1/1
f 23/1/1 18/1/1 17/1/1
f 24/1/1 18/1/1 23/1/1
f 27/6/1 26/6/1 25/6/1
f 28/6/1 26/6/1 27/6/1
f 29/6/2 30/6/2 31/6/2
f 31/6/2 30/6/2 32/6/2
f 33/6/2 34/6/2 39/6/2
f 39/6/2 34/6/2 40/6/2
f 35/1/2 36/1/2 41/1/2
f 41/1/2 36/1/2 42/1/2
f 37/1/2 38/1/2 43/1/2
f 43/1/2 38/1/2 44/1/2
f 45/1/2 46/1/2 47/1/2
f 47/1/2 46/1/2 48/1/2
f 49/4/2 50/4/2 51/4/2
f 51/4/2 50/4/2 52/4/2
f 49/4/2 51/4/2 53/4/2
f 51/3/2 52/3/2 53/3/2
f 52/4/2 50/4/2 54/4/2
f 53/3/2 52/3/2 54/3/2
f 49/4/2 53/4/2 55/4/2
f 53/4/2 54/4/2 55/4/2
f 54/4/2 50/4/2 56/4/2
f 55/4/2 54/4/2 56/4/2
f 59/4/3 58/4/3 57/4/3
f 60/4/3 58/4/3 59/4/3
f 61/4/3 58/4/3 60/4/3
f 62/4/3 58/4/3 61/4/3
f 63/1/3 61/1/3 60/1/3
f 63/7/3 62/7/3 61/7/3
f 64/4/3 58/4/3 62/4/3
f 64/7/3 62/7/3 63/7/3
f 65/3/3 60/3/3 59/3/3
f 65/1/3 63/1/3 60/1/3
f 66/8/3 64/8/3 63/8/3
f 66/1/3 63/1/3 65/1/3
f 67/4/3 58/4/3 64/4/3
f 67/8/3 64/8/3 66/8/3
f 68/4/3 58/4/3 67/4/3
f 70/7/3 66/7/3 65/7/3
f 70/3/3 65/3/3 59/3/3
f 70/7/3 67/7/3 66/7/3
f 71/7/3 67/7/3 70/7/3
f 72/4/3 68/4/3 67/4/3
f 72/7/3 67/7/3 71/7/3
f 73/6/3 69/6/3 68/6/3
f 73/4/3 68/4/3 72/4/3
f 74/6/3 69/6/3 73/6/3
f 75/8/3 72/8/3 71/8/3
f 75/1/3 71/1/3 70/1/3
f 76/4/3 73/4/3 72/4/3
f 76/8/3 72/8/3 75/8/3
f 77/4/3 59/4/3 57/4/3
f 77/3/3 70/3/3 59/3/3
f 78/1/3 75/1/3 70/1/3
f 78/3/3 70/3/3 77/3/3
f 79/7/3 76/7/3 75/7/3
f 79/1/3 75/1/3 78/1/3
f 80/4/3 73/4/3 76/4/3
f 80/7/3 76/7/3 79/7/3
f 81/4/3 79/4/3 78/4/3
f 81/4/3 77/4/3 57/4/3
f 81/4/3 80/4/3 79/4/3
f 81/4/3 78/4/3 77/4/3
f 82/4/3 73/4/3 80/4/3
f 82/4/3 80/4/3 81/4/3
f 85/1/3 84/1/3 83/1/3
f 86/1/3 84/1/3 85/1/3
f 89/1/3 88/1/3 87/1/3
f 90/1/3 88/1/3 89/1/3
f 93/1/3 92/1/3 91/1/3
f 94/1/3 92/1/3 93/1/3
f 97/1/3 96/1/3 95/1/3
f 98/1/3 96/1/3 97/1/3
f 99/6/4 100/6/4 101/6/4
f 101/6/4 100/6/4 102/6/4
f 103/6/4 104/6/4 105/6/4
f 105/6/4 104/6/4 106/6/4
f 107/1/4 108/1/4 109/1/4
f 109/1/4 108/1/4 110/1/4
f 111/1/4 112/1/4 113/1/4
f 113/1/4 112/1/4 114/1/4
f 115/4/4 116/4/4 117/4/4
f 117/4/4 116/4/4 118/4/4
f 118/4/4 116/4/4 119/4/4
f 118/4/4 119/4/4 121/4/4
f 119/1/4 120/1/4 121/1/4
f 121/1/4 120/1/4 122/1/4
f 115/4/4 117/4/4 123/4/4
f 117/3/4 118/3/4 123/3/4
f 118/4/4 121/4/4 124/4/4
f 123/3/4 118/3/4 124/3/4
f 115/4/4 123/4/4 125/4/4
f 123/4/4 124/4/4 125/4/4
f 124/4/4 121/4/4 126/4/4
f 125/4/4 124/4/4 126/4/4
f 129/4/5 128/4/5 127/4/5
f 130/4/5 128/4/5 129/4/5
f 131/4/5 129/4/5 127/4/5
f 131/3/5 130/3/5 129/3/5
f 132/4/5 128/4/5 130/4/5
f 132/3/5 130/3/5 131/3/5
f 133/4/5 131/4/5 127/4/5
f 133/4/5 132/4/5 131/4/5
f 134/4/5 128/4/5 132/4/5
f 134/4/5 132/4/5 133/4/5
f 135/4/6 136/4/6 139/4/6
f 139/4/6 136/4/6 140/4/6
f 137/4/6 138/4/6 143/4/6
f 143/4/6 138/4/6 144/4/6
f 140/3/6 141/3/6 145/3/6
f 139/3/6 140/3/6 145/3/6
f 145/3/6 141/3/6 146/3/6
f 143/3/6 144/3/6 147/3/6
f 142/3/6 143/3/6 147/3/6
f 147/3/6 144/3/6 148/3/6
f 139/3/6 145/3/6 149/3/6
f 149/3/6 145/3/6 150/3/6
f 148/3/6 144/3/6 151/3/6
f 151/3/6 144/3/6 152/3/6
f 135/4/6 139/4/6 153/4/6
f 139/3/6 149/3/6 153/3/6
f 153/3/6 149/3/6 154/3/6
f 152/3/6 144/3/6 157/3/6
f 144/4/6 138/4/6 158/4/6
f 157/3/6 144/3/6 158/3/6
f 154/4/6 155/4/6 159/4/6
f 135/4/6 153/4/6 159/4/6
f 153/4/6 154/4/6 159/4/6
f 159/4/6 155/4/6 160/4/6
f 156/4/6 157/4/6 161/4/6
f 157/4/6 158/4/6 161/4/6
f 158/4/6 138/4/6 162/4/6
f 161/4/6 158/4/6 162/4/6
f 163/6/6 164/6/6 165/6/6
f 165/6/6 164/6/6 166/6/6
f 166/6/6 164/6/6 167/6/6
f 167/6/6 164/6/6 168/6/6
f 166/6/6 167/6/6 170/6/6
f 170/6/6 167/6/6 171/6/6
f 169/1/6 170/1/6 174/1/6
f 171/1/6 172/1/6 174/1/6
f 170/1/6 171/1/6 174/1/6
f 174/1/6 172/1/6 175/1/6
f 175/1/6 172/1/6 176/1/6
f 176/1/6 172/1/6 177/1/6
f 173/1/6 174/1/6 179/1/6
f 174/1/6 175/1/6 179/1/6
f 179/1/6 175/1/6 180/1/6
f 175/5/6 176/5/6 181/5/6
f 180/1/6 175/1/6 181/1/6
f 176/1/6 177/1/6 182/1/6
f 181/5/6 176/5/6 182/5/6
f 177/1/6 178/1/6 182/1/6
f 182/1/6 178/1/6 183/1/6
f 183/1/6 178/1/6 184/1/6
f 180/1/6 181/1/6 185/1/6
f 182/1/6 183/1/6 185/1/6
f 181/1/6 182/1/6 185/1/6
f 185/1/6 183/1/6 186/1/6
