# MagicaVoxel @ Ephtracy

# group
o 

# material
mtllib Gun.mtl
usemtl palette

# normals
vn -1 0 0
vn 1 0 0
vn 0 0 1
vn 0 0 -1
vn 0 -1 0
vn 0 1 0

# texcoords
vt 0.208984 0.5
vt 0.759766 0.5
vt 0.982422 0.5
vt 0.986328 0.5

# verts
v -0.1 0.1 -0.3
v -0.1 0.1 -0.5
v -0.1 0.3 0.4
v -0.1 0.3 -0.3
v -0.1 0.4 0.5
v -0.1 0.4 0.4
v -0.1 0.4 -0.4
v -0.1 0.4 -0.5
v -0.1 0.5 0.5
v -0.1 0.5 0.4
v -0.1 0.5 -0.3
v -0.1 0.5 -0.4
v -0.1 0.6 0.4
v -0.1 0.6 -0.3
v -0.1 0.6 -0.4
v -0.1 0.6 -0.5
v 1.49012e-08 0.2 -0.2
v 1.49012e-08 0.2 -0.3
v 1.49012e-08 0.3 0.5
v 1.49012e-08 0.3 0.4
v 1.49012e-08 0.3 -0.2
v 1.49012e-08 0.3 -0.3
v 1.49012e-08 0.4 0.5
v 1.49012e-08 0.4 0.4
v 1.49012e-08 0.5 0.5
v 1.49012e-08 0.5 0.4
v 1.49012e-08 0.6 0.5
v 1.49012e-08 0.6 0.4
v 0.1 0.2 -0.2
v 0.1 0.2 -0.3
v 0.1 0.3 0.5
v 0.1 0.3 0.4
v 0.1 0.3 -0.2
v 0.1 0.3 -0.3
v 0.1 0.4 0.5
v 0.1 0.4 0.4
v 0.1 0.5 0.5
v 0.1 0.5 0.4
v 0.1 0.6 0.5
v 0.1 0.6 0.4
v 0.2 0.1 -0.3
v 0.2 0.1 -0.5
v 0.2 0.3 0.4
v 0.2 0.3 -0.3
v 0.2 0.4 0.5
v 0.2 0.4 0.4
v 0.2 0.4 -0.4
v 0.2 0.4 -0.5
v 0.2 0.5 0.5
v 0.2 0.5 0.4
v 0.2 0.5 -0.3
v 0.2 0.5 -0.4
v 0.2 0.6 0.4
v 0.2 0.6 -0.3
v 0.2 0.6 -0.4
v 0.2 0.6 -0.5
v -0.1 0.4 0.5
v -0.1 0.5 0.5
v 1.49012e-08 0.3 0.5
v 1.49012e-08 0.4 0.5
v 1.49012e-08 0.5 0.5
v 1.49012e-08 0.6 0.5
v 0.1 0.3 0.5
v 0.1 0.4 0.5
v 0.1 0.5 0.5
v 0.1 0.6 0.5
v 0.2 0.4 0.5
v 0.2 0.5 0.5
v -0.1 0.3 0.4
v -0.1 0.4 0.4
v -0.1 0.5 0.4
v -0.1 0.6 0.4
v 1.49012e-08 0.3 0.4
v 1.49012e-08 0.4 0.4
v 1.49012e-08 0.5 0.4
v 1.49012e-08 0.6 0.4
v 0.1 0.3 0.4
v 0.1 0.4 0.4
v 0.1 0.5 0.4
v 0.1 0.6 0.4
v 0.2 0.3 0.4
v 0.2 0.4 0.4
v 0.2 0.5 0.4
v 0.2 0.6 0.4
v 1.49012e-08 0.2 -0.2
v 1.49012e-08 0.3 -0.2
v 0.1 0.2 -0.2
v 0.1 0.3 -0.2
v -0.1 0.1 -0.3
v -0.1 0.3 -0.3
v 1.49012e-08 0.2 -0.3
v 1.49012e-08 0.3 -0.3
v 0.1 0.2 -0.3
v 0.1 0.3 -0.3
v 0.2 0.1 -0.3
v 0.2 0.3 -0.3
v -0.1 0.5 -0.4
v -0.1 0.6 -0.4
v 0.2 0.5 -0.4
v 0.2 0.6 -0.4
v -0.1 0.5 -0.3
v -0.1 0.6 -0.3
v 0.2 0.5 -0.3
v 0.2 0.6 -0.3
v -0.1 0.1 -0.5
v -0.1 0.4 -0.5
v -0.1 0.6 -0.5
v 0.2 0.1 -0.5
v 0.2 0.4 -0.5
v 0.2 0.6 -0.5
v -0.1 0.1 -0.3
v 0.2 0.1 -0.3
v -0.1 0.1 -0.5
v 0.2 0.1 -0.5
v 1.49012e-08 0.2 -0.2
v 0.1 0.2 -0.2
v 1.49012e-08 0.2 -0.3
v 0.1 0.2 -0.3
v 1.49012e-08 0.3 0.5
v 0.1 0.3 0.5
v -0.1 0.3 0.4
v 1.49012e-08 0.3 0.4
v 0.1 0.3 0.4
v 0.2 0.3 0.4
v 1.49012e-08 0.3 -0.2
v 0.1 0.3 -0.2
v -0.1 0.3 -0.3
v 1.49012e-08 0.3 -0.3
v 0.1 0.3 -0.3
v 0.2 0.3 -0.3
v -0.1 0.4 0.5
v 1.49012e-08 0.4 0.5
v 0.1 0.4 0.5
v 0.2 0.4 0.5
v -0.1 0.4 0.4
v 1.49012e-08 0.4 0.4
v 0.1 0.4 0.4
v 0.2 0.4 0.4
v -0.1 0.5 0.5
v 1.49012e-08 0.5 0.5
v 0.1 0.5 0.5
v 0.2 0.5 0.5
v -0.1 0.5 0.4
v 1.49012e-08 0.5 0.4
v 0.1 0.5 0.4
v 0.2 0.5 0.4
v -0.1 0.5 -0.3
v 0.2 0.5 -0.3
v -0.1 0.5 -0.4
v 0.2 0.5 -0.4
v 1.49012e-08 0.6 0.5
v 0.1 0.6 0.5
v -0.1 0.6 0.4
v 1.49012e-08 0.6 0.4
v 0.1 0.6 0.4
v 0.2 0.6 0.4
v -0.1 0.6 -0.3
v 0.2 0.6 -0.3
v -0.1 0.6 -0.4
v 0.2 0.6 -0.4
v -0.1 0.6 -0.5
v 0.2 0.6 -0.5

# faces
f 4/4/1 2/4/1 1/4/1
f 6/3/1 4/3/1 3/3/1
f 7/4/1 2/4/1 4/4/1
f 8/4/1 2/4/1 7/4/1
f 9/1/1 6/1/1 5/1/1
f 10/3/1 4/3/1 6/3/1
f 10/1/1 6/1/1 9/1/1
f 11/4/1 7/4/1 4/4/1
f 11/3/1 4/3/1 10/3/1
f 12/3/1 8/3/1 7/3/1
f 12/4/1 7/4/1 11/4/1
f 13/3/1 11/3/1 10/3/1
f 14/3/1 11/3/1 13/3/1
f 15/3/1 8/3/1 12/3/1
f 16/3/1 8/3/1 15/3/1
f 21/2/1 18/2/1 17/2/1
f 22/2/1 18/2/1 21/2/1
f 23/1/1 20/1/1 19/1/1
f 24/1/1 20/1/1 23/1/1
f 27/1/1 26/1/1 25/1/1
f 28/1/1 26/1/1 27/1/1
f 29/2/2 30/2/2 33/2/2
f 33/2/2 30/2/2 34/2/2
f 31/1/2 32/1/2 35/1/2
f 35/1/2 32/1/2 36/1/2
f 37/1/2 38/1/2 39/1/2
f 39/1/2 38/1/2 40/1/2
f 41/4/2 42/4/2 44/4/2
f 43/3/2 44/3/2 46/3/2
f 44/4/2 42/4/2 47/4/2
f 47/4/2 42/4/2 48/4/2
f 45/1/2 46/1/2 49/1/2
f 46/3/2 44/3/2 50/3/2
f 49/1/2 46/1/2 50/1/2
f 44/4/2 47/4/2 51/4/2
f 50/3/2 44/3/2 51/3/2
f 47/3/2 48/3/2 52/3/2
f 51/4/2 47/4/2 52/4/2
f 50/3/2 51/3/2 53/3/2
f 53/3/2 51/3/2 54/3/2
f 52/3/2 48/3/2 55/3/2
f 55/3/2 48/3/2 56/3/2
f 60/1/3 58/1/3 57/1/3
f 61/1/3 58/1/3 60/1/3
f 63/1/3 60/1/3 59/1/3
f 64/4/3 61/4/3 60/4/3
f 64/1/3 60/1/3 63/1/3
f 65/1/3 62/1/3 61/1/3
f 65/4/3 61/4/3 64/4/3
f 66/1/3 62/1/3 65/1/3
f 67/1/3 65/1/3 64/1/3
f 68/1/3 65/1/3 67/1/3
f 73/3/3 70/3/3 69/3/3
f 74/3/3 70/3/3 73/3/3
f 75/3/3 72/3/3 71/3/3
f 76/3/3 72/3/3 75/3/3
f 81/3/3 78/3/3 77/3/3
f 82/3/3 78/3/3 81/3/3
f 83/3/3 80/3/3 79/3/3
f 84/3/3 80/3/3 83/3/3
f 87/2/3 86/2/3 85/2/3
f 88/2/3 86/2/3 87/2/3
f 91/4/3 90/4/3 89/4/3
f 92/4/3 90/4/3 91/4/3
f 93/4/3 91/4/3 89/4/3
f 95/4/3 93/4/3 89/4/3
f 95/4/3 94/4/3 93/4/3
f 96/4/3 94/4/3 95/4/3
f 99/3/3 98/3/3 97/3/3
f 100/3/3 98/3/3 99/3/3
f 101/3/4 102/3/4 103/3/4
f 103/3/4 102/3/4 104/3/4
f 105/4/4 106/4/4 108/4/4
f 106/3/4 107/3/4 109/3/4
f 108/4/4 106/4/4 109/4/4
f 109/3/4 107/3/4 110/3/4
f 113/4/5 112/4/5 111/4/5
f 114/4/5 112/4/5 113/4/5
f 117/2/5 116/2/5 115/2/5
f 118/2/5 116/2/5 117/2/5
f 122/1/5 120/1/5 119/1/5
f 123/1/5 120/1/5 122/1/5
f 125/3/5 122/3/5 121/3/5
f 125/3/5 124/3/5 123/3/5
f 125/3/5 123/3/5 122/3/5
f 126/3/5 124/3/5 125/3/5
f 127/3/5 125/3/5 121/3/5
f 128/3/5 125/3/5 127/3/5
f 129/3/5 124/3/5 126/3/5
f 130/3/5 124/3/5 129/3/5
f 135/1/5 132/1/5 131/1/5
f 136/1/5 132/1/5 135/1/5
f 137/1/5 134/1/5 133/1/5
f 138/1/5 134/1/5 137/1/5
f 139/1/6 140/1/6 143/1/6
f 143/1/6 140/1/6 144/1/6
f 141/1/6 142/1/6 145/1/6
f 145/1/6 142/1/6 146/1/6
f 147/4/6 148/4/6 149/4/6
f 149/4/6 148/4/6 150/4/6
f 151/1/6 152/1/6 154/1/6
f 154/1/6 152/1/6 155/1/6
f 153/3/6 154/3/6 157/3/6
f 155/3/6 156/3/6 157/3/6
f 154/3/6 155/3/6 157/3/6
f 157/3/6 156/3/6 158/3/6
f 159/3/6 160/3/6 161/3/6
f 161/3/6 160/3/6 162/3/6
