# MagicaVoxel @ Ephtracy

# group
o 

# material
mtllib Heart.mtl
usemtl palette

# normals
vn -1 0 0
vn 1 0 0
vn 0 0 1
vn 0 0 -1
vn 0 -1 0
vn 0 1 0

# texcoords
vt 0.0644531 0.5
vt 0.958984 0.5
vt 0.986328 0.5

# verts
v -0.5 0.5 0
v -0.5 0.5 -0.1
v -0.5 0.8 0
v -0.5 0.8 -0.1
v -0.5 0.9 0
v -0.5 0.9 -0.1
v -0.4 0.4 0
v -0.4 0.4 -0.1
v -0.4 0.5 0.1
v -0.4 0.5 0
v -0.4 0.5 -0.1
v -0.4 0.5 -0.2
v -0.4 0.8 0.1
v -0.4 0.8 0
v -0.4 0.8 -0.1
v -0.4 0.8 -0.2
v -0.3 0.3 0
v -0.3 0.3 -0.1
v -0.3 0.4 0.1
v -0.3 0.4 0
v -0.3 0.4 -0.1
v -0.3 0.5 0.1
v -0.3 0.5 0
v -0.2 0.2 0
v -0.2 0.2 -0.1
v -0.2 0.3 0.1
v -0.2 0.3 0
v -0.2 0.3 -0.1
v -0.2 0.3 -0.2
v -0.2 0.4 0.1
v -0.2 0.4 0
v -0.2 0.4 -0.1
v -0.2 0.5 -0.1
v -0.2 0.5 -0.2
v -0.1 0.1 0
v -0.1 0.1 -0.1
v -0.1 0.2 0.1
v -0.1 0.2 0
v -0.1 0.2 -0.1
v -0.1 0.2 -0.2
v -0.1 0.3 0.1
v -0.1 0.3 0
v -0.1 0.3 -0.1
v -0.1 0.3 -0.2
v 0 0 0
v 0 0 -0.1
v 0 0.1 0.1
v 0 0.1 0
v 0 0.1 -0.1
v 0 0.1 -0.2
v 0 0.2 0.1
v 0 0.2 0
v 0 0.2 -0.1
v 0 0.2 -0.2
v 0.1 0.6 0.1
v 0.1 0.6 0
v 0.1 0.6 -0.1
v 0.1 0.6 -0.2
v 0.1 0.7 0.1
v 0.1 0.7 0
v 0.1 0.7 -0.1
v 0.1 0.7 -0.2
v 0.1 0.8 0
v 0.1 0.8 -0.1
v 0.2 0.7 0.1
v 0.2 0.7 0
v 0.2 0.7 -0.1
v 0.2 0.7 -0.2
v 0.2 0.8 0.1
v 0.2 0.8 0
v 0.2 0.8 -0.1
v 0.2 0.8 -0.2
v 0.2 0.9 0
v 0.2 0.9 -0.1
v -0.1 0.7 0.1
v -0.1 0.7 0
v -0.1 0.7 -0.1
v -0.1 0.7 -0.2
v -0.1 0.8 0.1
v -0.1 0.8 0
v -0.1 0.8 -0.1
v -0.1 0.8 -0.2
v -0.1 0.9 0
v -0.1 0.9 -0.1
v 0 0.6 0.1
v 0 0.6 0
v 0 0.6 -0.1
v 0 0.6 -0.2
v 0 0.7 0.1
v 0 0.7 0
v 0 0.7 -0.1
v 0 0.7 -0.2
v 0 0.8 0
v 0 0.8 -0.1
v 0.1 0 0
v 0.1 0 -0.1
v 0.1 0.1 0.1
v 0.1 0.1 0
v 0.1 0.1 -0.1
v 0.1 0.1 -0.2
v 0.1 0.2 0.1
v 0.1 0.2 0
v 0.1 0.2 -0.1
v 0.1 0.2 -0.2
v 0.2 0.1 0
v 0.2 0.1 -0.1
v 0.2 0.2 0.1
v 0.2 0.2 0
v 0.2 0.2 -0.1
v 0.2 0.2 -0.2
v 0.2 0.3 0.1
v 0.2 0.3 0
v 0.2 0.3 -0.1
v 0.2 0.3 -0.2
v 0.3 0.2 0
v 0.3 0.2 -0.1
v 0.3 0.3 0.1
v 0.3 0.3 0
v 0.3 0.3 -0.1
v 0.3 0.3 -0.2
v 0.3 0.4 0.1
v 0.3 0.4 0
v 0.3 0.4 -0.1
v 0.3 0.4 -0.2
v 0.4 0.3 0
v 0.4 0.3 -0.1
v 0.4 0.4 0.1
v 0.4 0.4 0
v 0.4 0.4 -0.1
v 0.4 0.4 -0.2
v 0.4 0.5 0.1
v 0.4 0.5 0
v 0.4 0.5 -0.1
v 0.4 0.5 -0.2
v 0.5 0.4 0
v 0.5 0.4 -0.1
v 0.5 0.5 0.1
v 0.5 0.5 0
v 0.5 0.5 -0.1
v 0.5 0.5 -0.2
v 0.5 0.8 0.1
v 0.5 0.8 0
v 0.5 0.8 -0.1
v 0.5 0.8 -0.2
v 0.6 0.5 0
v 0.6 0.5 -0.1
v 0.6 0.8 0
v 0.6 0.8 -0.1
v 0.6 0.9 0
v 0.6 0.9 -0.1
v -0.4 0.5 0.1
v -0.4 0.8 0.1
v -0.3 0.4 0.1
v -0.3 0.5 0.1
v -0.2 0.3 0.1
v -0.2 0.4 0.1
v -0.1 0.2 0.1
v -0.1 0.3 0.1
v -0.1 0.7 0.1
v -0.1 0.8 0.1
v 0 0.1 0.1
v 0 0.2 0.1
v 0 0.6 0.1
v 0 0.7 0.1
v 0.1 0.1 0.1
v 0.1 0.2 0.1
v 0.1 0.6 0.1
v 0.1 0.7 0.1
v 0.2 0.2 0.1
v 0.2 0.3 0.1
v 0.2 0.7 0.1
v 0.2 0.8 0.1
v 0.3 0.3 0.1
v 0.3 0.4 0.1
v 0.3 0.5 0.1
v 0.3 0.6 0.1
v 0.3 0.7 0.1
v 0.4 0.4 0.1
v 0.4 0.5 0.1
v 0.4 0.6 0.1
v 0.4 0.8 0.1
v 0.5 0.5 0.1
v 0.5 0.8 0.1
v -0.5 0.5 0
v -0.5 0.8 0
v -0.5 0.9 0
v -0.4 0.4 0
v -0.4 0.5 0
v -0.4 0.8 0
v -0.4 0.9 0
v -0.3 0.3 0
v -0.3 0.4 0
v -0.3 0.5 0
v -0.2 0.2 0
v -0.2 0.3 0
v -0.2 0.4 0
v -0.1 0.1 0
v -0.1 0.2 0
v -0.1 0.3 0
v -0.1 0.7 0
v -0.1 0.8 0
v -0.1 0.9 0
v 0 0 0
v 0 0.1 0
v 0 0.2 0
v 0 0.6 0
v 0 0.7 0
v 0 0.8 0
v 0.1 0 0
v 0.1 0.1 0
v 0.1 0.2 0
v 0.1 0.6 0
v 0.1 0.7 0
v 0.1 0.8 0
v 0.2 0.1 0
v 0.2 0.2 0
v 0.2 0.3 0
v 0.2 0.7 0
v 0.2 0.8 0
v 0.2 0.9 0
v 0.3 0.2 0
v 0.3 0.3 0
v 0.3 0.4 0
v 0.4 0.3 0
v 0.4 0.4 0
v 0.4 0.5 0
v 0.4 0.8 0
v 0.5 0.4 0
v 0.5 0.5 0
v 0.5 0.8 0
v 0.5 0.9 0
v 0.6 0.5 0
v 0.6 0.8 0
v 0.6 0.9 0
v -0.5 0.5 -0.1
v -0.5 0.8 -0.1
v -0.5 0.9 -0.1
v -0.4 0.4 -0.1
v -0.4 0.5 -0.1
v -0.4 0.8 -0.1
v -0.4 0.9 -0.1
v -0.3 0.3 -0.1
v -0.3 0.4 -0.1
v -0.3 0.5 -0.1
v -0.2 0.2 -0.1
v -0.2 0.3 -0.1
v -0.2 0.4 -0.1
v -0.2 0.5 -0.1
v -0.1 0.1 -0.1
v -0.1 0.2 -0.1
v -0.1 0.3 -0.1
v -0.1 0.7 -0.1
v -0.1 0.8 -0.1
v -0.1 0.9 -0.1
v 0 0 -0.1
v 0 0.1 -0.1
v 0 0.2 -0.1
v 0 0.6 -0.1
v 0 0.7 -0.1
v 0 0.8 -0.1
v 0.1 0 -0.1
v 0.1 0.1 -0.1
v 0.1 0.2 -0.1
v 0.1 0.6 -0.1
v 0.1 0.7 -0.1
v 0.1 0.8 -0.1
v 0.2 0.1 -0.1
v 0.2 0.2 -0.1
v 0.2 0.3 -0.1
v 0.2 0.7 -0.1
v 0.2 0.8 -0.1
v 0.2 0.9 -0.1
v 0.3 0.2 -0.1
v 0.3 0.3 -0.1
v 0.3 0.4 -0.1
v 0.4 0.3 -0.1
v 0.4 0.4 -0.1
v 0.4 0.5 -0.1
v 0.4 0.8 -0.1
v 0.5 0.4 -0.1
v 0.5 0.5 -0.1
v 0.5 0.8 -0.1
v 0.5 0.9 -0.1
v 0.6 0.5 -0.1
v 0.6 0.8 -0.1
v 0.6 0.9 -0.1
v -0.4 0.5 -0.2
v -0.4 0.8 -0.2
v -0.2 0.3 -0.2
v -0.2 0.5 -0.2
v -0.1 0.2 -0.2
v -0.1 0.3 -0.2
v -0.1 0.7 -0.2
v -0.1 0.8 -0.2
v 0 0.1 -0.2
v 0 0.2 -0.2
v 0 0.6 -0.2
v 0 0.7 -0.2
v 0.1 0.1 -0.2
v 0.1 0.2 -0.2
v 0.1 0.6 -0.2
v 0.1 0.7 -0.2
v 0.2 0.2 -0.2
v 0.2 0.3 -0.2
v 0.2 0.7 -0.2
v 0.2 0.8 -0.2
v 0.3 0.3 -0.2
v 0.3 0.4 -0.2
v 0.3 0.5 -0.2
v 0.3 0.6 -0.2
v 0.3 0.7 -0.2
v 0.4 0.4 -0.2
v 0.4 0.5 -0.2
v 0.4 0.6 -0.2
v 0.4 0.8 -0.2
v 0.5 0.5 -0.2
v 0.5 0.8 -0.2
v 0 0 0
v 0.1 0 0
v 0 0 -0.1
v 0.1 0 -0.1
v 0 0.1 0.1
v 0.1 0.1 0.1
v -0.1 0.1 0
v 0 0.1 0
v 0.1 0.1 0
v 0.2 0.1 0
v -0.1 0.1 -0.1
v 0 0.1 -0.1
v 0.1 0.1 -0.1
v 0.2 0.1 -0.1
v 0 0.1 -0.2
v 0.1 0.1 -0.2
v -0.1 0.2 0.1
v 0 0.2 0.1
v 0.1 0.2 0.1
v 0.2 0.2 0.1
v -0.2 0.2 0
v -0.1 0.2 0
v 0 0.2 0
v 0.1 0.2 0
v 0.2 0.2 0
v 0.3 0.2 0
v -0.2 0.2 -0.1
v -0.1 0.2 -0.1
v 0 0.2 -0.1
v 0.1 0.2 -0.1
v 0.2 0.2 -0.1
v 0.3 0.2 -0.1
v -0.1 0.2 -0.2
v 0 0.2 -0.2
v 0.1 0.2 -0.2
v 0.2 0.2 -0.2
v -0.2 0.3 0.1
v -0.1 0.3 0.1
v 0.2 0.3 0.1
v 0.3 0.3 0.1
v -0.3 0.3 0
v -0.2 0.3 0
v -0.1 0.3 0
v 0.2 0.3 0
v 0.3 0.3 0
v 0.4 0.3 0
v -0.3 0.3 -0.1
v -0.2 0.3 -0.1
v -0.1 0.3 -0.1
v 0.2 0.3 -0.1
v 0.3 0.3 -0.1
v 0.4 0.3 -0.1
v -0.2 0.3 -0.2
v -0.1 0.3 -0.2
v 0.2 0.3 -0.2
v 0.3 0.3 -0.2
v -0.3 0.4 0.1
v -0.2 0.4 0.1
v 0.3 0.4 0.1
v 0.4 0.4 0.1
v -0.4 0.4 0
v -0.3 0.4 0
v -0.2 0.4 0
v 0.3 0.4 0
v 0.4 0.4 0
v 0.5 0.4 0
v -0.4 0.4 -0.1
v -0.3 0.4 -0.1
v 0.3 0.4 -0.1
v 0.4 0.4 -0.1
v 0.5 0.4 -0.1
v 0.3 0.4 -0.2
v 0.4 0.4 -0.2
v -0.4 0.5 0.1
v -0.3 0.5 0.1
v 0.4 0.5 0.1
v 0.5 0.5 0.1
v -0.5 0.5 0
v -0.4 0.5 0
v -0.3 0.5 0
v 0.4 0.5 0
v 0.5 0.5 0
v 0.6 0.5 0
v -0.5 0.5 -0.1
v -0.4 0.5 -0.1
v -0.3 0.5 -0.1
v -0.2 0.5 -0.1
v 0.4 0.5 -0.1
v 0.5 0.5 -0.1
v 0.6 0.5 -0.1
v -0.4 0.5 -0.2
v -0.2 0.5 -0.2
v 0.4 0.5 -0.2
v 0.5 0.5 -0.2
v 0 0.6 0.1
v 0.1 0.6 0.1
v 0 0.6 0
v 0.1 0.6 0
v 0 0.6 -0.1
v 0.1 0.6 -0.1
v 0 0.6 -0.2
v 0.1 0.6 -0.2
v -0.1 0.7 0.1
v 0 0.7 0.1
v 0.1 0.7 0.1
v 0.2 0.7 0.1
v -0.1 0.7 0
v 0 0.7 0
v 0.1 0.7 0
v 0.2 0.7 0
v -0.1 0.7 -0.1
v 0 0.7 -0.1
v 0.1 0.7 -0.1
v 0.2 0.7 -0.1
v -0.1 0.7 -0.2
v 0 0.7 -0.2
v 0.1 0.7 -0.2
v 0.2 0.7 -0.2
v -0.4 0.8 0.1
v -0.1 0.8 0.1
v 0.2 0.8 0.1
v 0.4 0.8 0.1
v 0.5 0.8 0.1
v -0.4 0.8 0
v -0.1 0.8 0
v 0 0.8 0
v 0.1 0.8 0
v 0.2 0.8 0
v 0.4 0.8 0
v 0.5 0.8 0
v -0.4 0.8 -0.1
v -0.1 0.8 -0.1
v 0 0.8 -0.1
v 0.1 0.8 -0.1
v 0.2 0.8 -0.1
v 0.4 0.8 -0.1
v 0.5 0.8 -0.1
v -0.4 0.8 -0.2
v -0.1 0.8 -0.2
v 0.2 0.8 -0.2
v 0.4 0.8 -0.2
v 0.5 0.8 -0.2
v -0.5 0.9 0
v -0.4 0.9 0
v -0.1 0.9 0
v 0.2 0.9 0
v 0.5 0.9 0
v 0.6 0.9 0
v -0.5 0.9 -0.1
v -0.4 0.9 -0.1
v -0.1 0.9 -0.1
v 0.2 0.9 -0.1
v 0.5 0.9 -0.1
v 0.6 0.9 -0.1

# faces
f 3/3/1 2/3/1 1/3/1
f 4/3/1 2/3/1 3/3/1
f 5/2/1 4/2/1 3/2/1
f 6/2/1 4/2/1 5/2/1
f 10/3/1 8/3/1 7/3/1
f 11/3/1 8/3/1 10/3/1
f 13/1/1 10/1/1 9/1/1
f 14/1/1 10/1/1 13/1/1
f 15/1/1 12/1/1 11/1/1
f 16/1/1 12/1/1 15/1/1
f 20/3/1 18/3/1 17/3/1
f 21/3/1 18/3/1 20/3/1
f 22/1/1 20/1/1 19/1/1
f 23/1/1 20/1/1 22/1/1
f 27/3/1 25/3/1 24/3/1
f 28/3/1 25/3/1 27/3/1
f 30/1/1 27/1/1 26/1/1
f 31/1/1 27/1/1 30/1/1
f 32/1/1 29/1/1 28/1/1
f 33/1/1 29/1/1 32/1/1
f 34/1/1 29/1/1 33/1/1
f 38/3/1 36/3/1 35/3/1
f 39/3/1 36/3/1 38/3/1
f 41/1/1 38/1/1 37/1/1
f 42/1/1 38/1/1 41/1/1
f 43/1/1 40/1/1 39/1/1
f 44/1/1 40/1/1 43/1/1
f 48/3/1 46/3/1 45/3/1
f 49/3/1 46/3/1 48/3/1
f 51/1/1 48/1/1 47/1/1
f 52/1/1 48/1/1 51/1/1
f 53/1/1 50/1/1 49/1/1
f 54/1/1 50/1/1 53/1/1
f 59/1/1 56/1/1 55/1/1
f 60/1/1 56/1/1 59/1/1
f 61/1/1 58/1/1 57/1/1
f 62/1/1 58/1/1 61/1/1
f 63/3/1 61/3/1 60/3/1
f 64/3/1 61/3/1 63/3/1
f 69/2/1 66/2/1 65/2/1
f 70/2/1 66/2/1 69/2/1
f 71/2/1 68/2/1 67/2/1
f 72/2/1 68/2/1 71/2/1
f 73/3/1 71/3/1 70/3/1
f 74/3/1 71/3/1 73/3/1
f 75/1/2 76/1/2 79/1/2
f 79/1/2 76/1/2 80/1/2
f 77/1/2 78/1/2 81/1/2
f 81/1/2 78/1/2 82/1/2
f 80/3/2 81/3/2 83/3/2
f 83/3/2 81/3/2 84/3/2
f 85/1/2 86/1/2 89/1/2
f 89/1/2 86/1/2 90/1/2
f 87/1/2 88/1/2 91/1/2
f 91/1/2 88/1/2 92/1/2
f 90/3/2 91/3/2 93/3/2
f 93/3/2 91/3/2 94/3/2
f 95/3/2 96/3/2 98/3/2
f 98/3/2 96/3/2 99/3/2
f 97/1/2 98/1/2 101/1/2
f 101/1/2 98/1/2 102/1/2
f 99/1/2 100/1/2 103/1/2
f 103/1/2 100/1/2 104/1/2
f 105/3/2 106/3/2 108/3/2
f 108/3/2 106/3/2 109/3/2
f 107/1/2 108/1/2 111/1/2
f 111/1/2 108/1/2 112/1/2
f 109/1/2 110/1/2 113/1/2
f 113/1/2 110/1/2 114/1/2
f 115/3/2 116/3/2 118/3/2
f 118/3/2 116/3/2 119/3/2
f 117/1/2 118/1/2 121/1/2
f 121/1/2 118/1/2 122/1/2
f 119/1/2 120/1/2 123/1/2
f 123/1/2 120/1/2 124/1/2
f 125/3/2 126/3/2 128/3/2
f 128/3/2 126/3/2 129/3/2
f 127/2/2 128/2/2 131/2/2
f 131/2/2 128/2/2 132/2/2
f 129/2/2 130/2/2 133/2/2
f 133/2/2 130/2/2 134/2/2
f 135/3/2 136/3/2 138/3/2
f 138/3/2 136/3/2 139/3/2
f 137/1/2 138/1/2 141/1/2
f 141/1/2 138/1/2 142/1/2
f 139/1/2 140/1/2 143/1/2
f 143/1/2 140/1/2 144/1/2
f 145/3/2 146/3/2 147/3/2
f 147/3/2 146/3/2 148/3/2
f 147/2/2 148/2/2 149/2/2
f 149/2/2 148/2/2 150/2/2
f 154/1/3 152/1/3 151/1/3
f 156/1/3 154/1/3 153/1/3
f 158/1/3 156/1/3 155/1/3
f 159/1/3 152/1/3 154/1/3
f 159/1/3 154/1/3 156/1/3
f 159/1/3 156/1/3 158/1/3
f 160/1/3 152/1/3 159/1/3
f 162/1/3 158/1/3 157/1/3
f 162/1/3 159/1/3 158/1/3
f 163/1/3 159/1/3 162/1/3
f 164/1/3 159/1/3 163/1/3
f 165/1/3 162/1/3 161/1/3
f 165/1/3 163/1/3 162/1/3
f 166/1/3 163/1/3 165/1/3
f 167/1/3 163/1/3 166/1/3
f 169/1/3 168/1/3 167/1/3
f 169/1/3 167/1/3 166/1/3
f 170/1/3 168/1/3 169/1/3
f 171/1/3 168/1/3 170/1/3
f 173/1/3 171/1/3 170/1/3
f 174/1/3 171/1/3 173/1/3
f 175/1/3 171/1/3 174/1/3
f 176/1/3 171/1/3 175/1/3
f 177/2/3 172/2/3 171/2/3
f 177/1/3 171/1/3 176/1/3
f 178/2/3 175/2/3 174/2/3
f 179/1/3 176/1/3 175/1/3
f 179/2/3 175/2/3 178/2/3
f 180/2/3 177/2/3 176/2/3
f 180/1/3 176/1/3 179/1/3
f 181/2/3 172/2/3 177/2/3
f 181/2/3 177/2/3 180/2/3
f 182/1/3 180/1/3 179/1/3
f 182/1/3 181/1/3 180/1/3
f 183/1/3 181/1/3 182/1/3
f 188/3/3 185/3/3 184/3/3
f 189/2/3 186/2/3 185/2/3
f 189/3/3 185/3/3 188/3/3
f 190/2/3 186/2/3 189/2/3
f 192/3/3 188/3/3 187/3/3
f 193/3/3 188/3/3 192/3/3
f 195/3/3 192/3/3 191/3/3
f 196/3/3 192/3/3 195/3/3
f 198/3/3 195/3/3 194/3/3
f 199/3/3 195/3/3 198/3/3
f 201/3/3 190/3/3 189/3/3
f 202/3/3 190/3/3 201/3/3
f 204/3/3 198/3/3 197/3/3
f 205/3/3 198/3/3 204/3/3
f 207/3/3 201/3/3 200/3/3
f 208/3/3 201/3/3 207/3/3
f 209/3/3 204/3/3 203/3/3
f 210/3/3 204/3/3 209/3/3
f 212/3/3 207/3/3 206/3/3
f 213/3/3 207/3/3 212/3/3
f 215/3/3 211/3/3 210/3/3
f 216/3/3 211/3/3 215/3/3
f 218/3/3 214/3/3 213/3/3
f 219/3/3 214/3/3 218/3/3
f 221/3/3 217/3/3 216/3/3
f 222/3/3 217/3/3 221/3/3
f 224/3/3 223/3/3 222/3/3
f 225/3/3 223/3/3 224/3/3
f 227/3/3 220/3/3 219/3/3
f 228/3/3 226/3/3 225/3/3
f 229/3/3 226/3/3 228/3/3
f 230/3/3 220/3/3 227/3/3
f 231/3/3 220/3/3 230/3/3
f 232/3/3 230/3/3 229/3/3
f 233/2/3 231/2/3 230/2/3
f 233/3/3 230/3/3 232/3/3
f 234/2/3 231/2/3 233/2/3
f 235/3/4 236/3/4 239/3/4
f 236/2/4 237/2/4 240/2/4
f 239/3/4 236/3/4 240/3/4
f 240/2/4 237/2/4 241/2/4
f 238/3/4 239/3/4 243/3/4
f 243/3/4 239/3/4 244/3/4
f 242/3/4 243/3/4 246/3/4
f 243/1/4 244/1/4 247/1/4
f 246/3/4 243/3/4 247/3/4
f 247/1/4 244/1/4 248/1/4
f 245/3/4 246/3/4 250/3/4
f 250/3/4 246/3/4 251/3/4
f 240/3/4 241/3/4 253/3/4
f 253/3/4 241/3/4 254/3/4
f 249/3/4 250/3/4 256/3/4
f 256/3/4 250/3/4 257/3/4
f 252/3/4 253/3/4 259/3/4
f 259/3/4 253/3/4 260/3/4
f 255/3/4 256/3/4 261/3/4
f 261/3/4 256/3/4 262/3/4
f 258/3/4 259/3/4 264/3/4
f 264/3/4 259/3/4 265/3/4
f 262/3/4 263/3/4 267/3/4
f 267/3/4 263/3/4 268/3/4
f 265/3/4 266/3/4 270/3/4
f 270/3/4 266/3/4 271/3/4
f 268/3/4 269/3/4 273/3/4
f 273/3/4 269/3/4 274/3/4
f 274/3/4 275/3/4 276/3/4
f 276/3/4 275/3/4 277/3/4
f 271/3/4 272/3/4 279/3/4
f 277/3/4 278/3/4 280/3/4
f 280/3/4 278/3/4 281/3/4
f 279/3/4 272/3/4 282/3/4
f 282/3/4 272/3/4 283/3/4
f 281/3/4 282/3/4 284/3/4
f 282/2/4 283/2/4 285/2/4
f 284/3/4 282/3/4 285/3/4
f 285/2/4 283/2/4 286/2/4
f 287/1/4 288/1/4 290/1/4
f 289/1/4 290/1/4 292/1/4
f 290/1/4 288/1/4 293/1/4
f 292/1/4 290/1/4 293/1/4
f 293/1/4 288/1/4 294/1/4
f 291/1/4 292/1/4 296/1/4
f 292/1/4 293/1/4 296/1/4
f 296/1/4 293/1/4 297/1/4
f 297/1/4 293/1/4 298/1/4
f 295/1/4 296/1/4 299/1/4
f 296/1/4 297/1/4 299/1/4
f 299/1/4 297/1/4 300/1/4
f 300/1/4 297/1/4 301/1/4
f 301/1/4 302/1/4 303/1/4
f 300/1/4 301/1/4 303/1/4
f 303/1/4 302/1/4 304/1/4
f 304/1/4 302/1/4 305/1/4
f 304/1/4 305/1/4 307/1/4
f 307/1/4 305/1/4 308/1/4
f 308/1/4 305/1/4 309/1/4
f 309/1/4 305/1/4 310/1/4
f 305/2/4 306/2/4 311/2/4
f 310/1/4 305/1/4 311/1/4
f 308/2/4 309/2/4 312/2/4
f 309/1/4 310/1/4 313/1/4
f 312/2/4 309/2/4 313/2/4
f 310/2/4 311/2/4 314/2/4
f 313/1/4 310/1/4 314/1/4
f 311/2/4 306/2/4 315/2/4
f 314/2/4 311/2/4 315/2/4
f 313/1/4 314/1/4 316/1/4
f 314/1/4 315/1/4 316/1/4
f 316/1/4 315/1/4 317/1/4
f 320/3/5 319/3/5 318/3/5
f 321/3/5 319/3/5 320/3/5
f 325/1/5 323/1/5 322/1/5
f 326/1/5 323/1/5 325/1/5
f 328/3/5 325/3/5 324/3/5
f 329/3/5 325/3/5 328/3/5
f 330/3/5 327/3/5 326/3/5
f 331/3/5 327/3/5 330/3/5
f 332/1/5 330/1/5 329/1/5
f 333/1/5 330/1/5 332/1/5
f 339/1/5 335/1/5 334/1/5
f 340/1/5 335/1/5 339/1/5
f 341/1/5 337/1/5 336/1/5
f 342/1/5 337/1/5 341/1/5
f 344/3/5 339/3/5 338/3/5
f 345/3/5 339/3/5 344/3/5
f 348/3/5 343/3/5 342/3/5
f 349/3/5 343/3/5 348/3/5
f 350/1/5 346/1/5 345/1/5
f 351/1/5 346/1/5 350/1/5
f 352/1/5 348/1/5 347/1/5
f 353/1/5 348/1/5 352/1/5
f 359/1/5 355/1/5 354/1/5
f 360/1/5 355/1/5 359/1/5
f 361/1/5 357/1/5 356/1/5
f 362/1/5 357/1/5 361/1/5
f 364/3/5 359/3/5 358/3/5
f 365/3/5 359/3/5 364/3/5
f 368/3/5 363/3/5 362/3/5
f 369/3/5 363/3/5 368/3/5
f 370/1/5 366/1/5 365/1/5
f 371/1/5 366/1/5 370/1/5
f 372/1/5 368/1/5 367/1/5
f 373/1/5 368/1/5 372/1/5
f 379/1/5 375/1/5 374/1/5
f 380/1/5 375/1/5 379/1/5
f 381/2/5 377/2/5 376/2/5
f 382/2/5 377/2/5 381/2/5
f 384/3/5 379/3/5 378/3/5
f 385/3/5 379/3/5 384/3/5
f 387/3/5 383/3/5 382/3/5
f 388/3/5 383/3/5 387/3/5
f 389/2/5 387/2/5 386/2/5
f 390/2/5 387/2/5 389/2/5
f 396/1/5 392/1/5 391/1/5
f 397/1/5 392/1/5 396/1/5
f 398/1/5 394/1/5 393/1/5
f 399/1/5 394/1/5 398/1/5
f 401/3/5 396/3/5 395/3/5
f 402/3/5 396/3/5 401/3/5
f 406/3/5 400/3/5 399/3/5
f 407/3/5 400/3/5 406/3/5
f 408/1/5 404/1/5 403/1/5
f 408/1/5 403/1/5 402/1/5
f 409/1/5 404/1/5 408/1/5
f 410/1/5 406/1/5 405/1/5
f 411/1/5 406/1/5 410/1/5
f 412/1/6 413/1/6 414/1/6
f 414/1/6 413/1/6 415/1/6
f 416/1/6 417/1/6 418/1/6
f 418/1/6 417/1/6 419/1/6
f 420/1/6 421/1/6 424/1/6
f 424/1/6 421/1/6 425/1/6
f 422/1/6 423/1/6 426/1/6
f 426/1/6 423/1/6 427/1/6
f 425/3/6 426/3/6 429/3/6
f 429/3/6 426/3/6 430/3/6
f 428/1/6 429/1/6 432/1/6
f 432/1/6 429/1/6 433/1/6
f 430/1/6 431/1/6 434/1/6
f 434/1/6 431/1/6 435/1/6
f 436/1/6 437/1/6 441/1/6
f 441/1/6 437/1/6 442/1/6
f 438/2/6 439/2/6 445/2/6
f 439/1/6 440/1/6 446/1/6
f 445/2/6 439/2/6 446/2/6
f 446/1/6 440/1/6 447/1/6
f 442/3/6 443/3/6 449/3/6
f 449/3/6 443/3/6 450/3/6
f 444/3/6 445/3/6 451/3/6
f 451/3/6 445/3/6 452/3/6
f 448/1/6 449/1/6 455/1/6
f 455/1/6 449/1/6 456/1/6
f 452/2/6 453/2/6 457/2/6
f 453/1/6 454/1/6 458/1/6
f 457/2/6 453/2/6 458/2/6
f 458/1/6 454/1/6 459/1/6
f 460/2/6 461/2/6 466/2/6
f 461/3/6 462/3/6 467/3/6
f 466/2/6 461/2/6 467/2/6
f 467/3/6 462/3/6 468/3/6
f 463/3/6 464/3/6 469/3/6
f 464/2/6 465/2/6 470/2/6
f 469/3/6 464/3/6 470/3/6
f 470/2/6 465/2/6 471/2/6
