# MagicaVoxel @ Ephtracy

# group
o 

# material
mtllib Player.mtl
usemtl palette

# normals
vn -1 0 0
vn 1 0 0
vn 0 0 1
vn 0 0 -1
vn 0 -1 0
vn 0 1 0

# texcoords
vt 0.0214844 0.5
vt 0.306641 0.5
vt 0.494141 0.5
vt 0.958984 0.5
vt 0.986328 0.5
vt 0.990234 0.5
vt 0.994141 0.5

# verts
v -0.5 0.5 0.3
v -0.5 0.5 -0.3
v -0.5 1.3 0.3
v -0.5 1.3 -0.3
v -0.4 0 0.3
v -0.4 0 -0.3
v -0.4 0.5 0.3
v -0.4 0.5 -0.3
v 0.4 0 0.3
v 0.4 0 -0.3
v 0.4 0.5 0.3
v 0.4 0.5 -0.3
v 0.5 0.5 0.3
v 0.5 0.5 -0.3
v 0.5 1.3 0.3
v 0.5 1.3 -0.3
v -0.5 0.5 0.3
v -0.5 1.3 0.3
v -0.4 0 0.3
v -0.4 0.5 0.3
v -0.4 0.6 0.3
v -0.4 0.7 0.3
v -0.4 0.9 0.3
v -0.4 1 0.3
v -0.4 1.1 0.3
v -0.4 1.2 0.3
v -0.3 0.7 0.3
v -0.3 0.9 0.3
v -0.2 0.3 0.3
v -0.2 0.4 0.3
v -0.2 0.6 0.3
v -0.2 0.7 0.3
v -0.2 0.9 0.3
v -0.1 0.3 0.3
v -0.1 0.4 0.3
v -0.1 0.5 0.3
v 0.1 0.3 0.3
v 0.1 0.4 0.3
v 0.1 0.5 0.3
v 0.2 0.3 0.3
v 0.2 0.4 0.3
v 0.2 0.6 0.3
v 0.2 0.7 0.3
v 0.2 0.9 0.3
v 0.3 0.7 0.3
v 0.3 0.9 0.3
v 0.4 0 0.3
v 0.4 0.5 0.3
v 0.4 0.6 0.3
v 0.4 0.7 0.3
v 0.4 0.9 0.3
v 0.4 1 0.3
v 0.4 1.1 0.3
v 0.4 1.2 0.3
v 0.5 0.5 0.3
v 0.5 1.3 0.3
v -0.5 0.5 -0.3
v -0.5 1.3 -0.3
v -0.4 0 -0.3
v -0.4 0.5 -0.3
v 0.4 0 -0.3
v 0.4 0.5 -0.3
v 0.5 0.5 -0.3
v 0.5 1.3 -0.3
v -0.4 0 0.3
v 0.4 0 0.3
v -0.4 0 -0.3
v 0.4 0 -0.3
v -0.5 0.5 0.3
v -0.4 0.5 0.3
v 0.4 0.5 0.3
v 0.5 0.5 0.3
v -0.5 0.5 -0.3
v -0.4 0.5 -0.3
v 0.4 0.5 -0.3
v 0.5 0.5 -0.3
v -0.5 1.3 0.3
v 0.5 1.3 0.3
v -0.5 1.3 -0.3
v 0.5 1.3 -0.3

# faces
f 3/2/1 2/2/1 1/2/1
f 4/2/1 2/2/1 3/2/1
f 7/2/1 6/2/1 5/2/1
f 8/2/1 6/2/1 7/2/1
f 9/2/2 10/2/2 11/2/2
f 11/2/2 10/2/2 12/2/2
f 13/2/2 14/2/2 15/2/2
f 15/2/2 14/2/2 16/2/2
f 20/2/3 18/2/3 17/2/3
f 21/2/3 18/2/3 20/2/3
f 22/2/3 18/2/3 21/2/3
f 23/2/3 18/2/3 22/2/3
f 24/2/3 18/2/3 23/2/3
f 25/2/3 18/2/3 24/2/3
f 26/2/3 18/2/3 25/2/3
f 27/1/3 22/1/3 21/1/3
f 27/4/3 23/4/3 22/4/3
f 28/5/3 24/5/3 23/5/3
f 28/4/3 23/4/3 27/4/3
f 29/2/3 20/2/3 19/2/3
f 30/2/3 20/2/3 29/2/3
f 31/4/3 21/4/3 20/4/3
f 31/1/3 27/1/3 21/1/3
f 32/7/3 28/7/3 27/7/3
f 32/1/3 27/1/3 31/1/3
f 33/5/3 24/5/3 28/5/3
f 33/7/3 28/7/3 32/7/3
f 34/4/3 30/4/3 29/4/3
f 34/2/3 29/2/3 19/2/3
f 35/2/3 20/2/3 30/2/3
f 35/4/3 30/4/3 34/4/3
f 36/4/3 32/4/3 31/4/3
f 36/2/3 20/2/3 35/2/3
f 36/4/3 31/4/3 20/4/3
f 36/4/3 33/4/3 32/4/3
f 37/2/3 35/2/3 34/2/3
f 37/2/3 34/2/3 19/2/3
f 38/3/3 36/3/3 35/3/3
f 38/2/3 35/2/3 37/2/3
f 39/4/3 33/4/3 36/4/3
f 39/3/3 36/3/3 38/3/3
f 40/4/3 38/4/3 37/4/3
f 40/2/3 37/2/3 19/2/3
f 41/2/3 39/2/3 38/2/3
f 41/4/3 38/4/3 40/4/3
f 42/4/3 33/4/3 39/4/3
f 43/4/3 33/4/3 42/4/3
f 44/5/3 24/5/3 33/5/3
f 44/4/3 33/4/3 43/4/3
f 45/1/3 43/1/3 42/1/3
f 45/7/3 44/7/3 43/7/3
f 46/5/3 24/5/3 44/5/3
f 46/7/3 44/7/3 45/7/3
f 47/2/3 40/2/3 19/2/3
f 47/2/3 41/2/3 40/2/3
f 48/2/3 39/2/3 41/2/3
f 48/2/3 41/2/3 47/2/3
f 48/4/3 42/4/3 39/4/3
f 49/1/3 45/1/3 42/1/3
f 49/4/3 42/4/3 48/4/3
f 50/4/3 46/4/3 45/4/3
f 50/1/3 45/1/3 49/1/3
f 51/5/3 24/5/3 46/5/3
f 51/4/3 46/4/3 50/4/3
f 52/6/3 25/6/3 24/6/3
f 52/5/3 24/5/3 51/5/3
f 53/7/3 26/7/3 25/7/3
f 53/6/3 25/6/3 52/6/3
f 54/2/3 18/2/3 26/2/3
f 54/7/3 26/7/3 53/7/3
f 55/2/3 50/2/3 49/2/3
f 55/2/3 53/2/3 52/2/3
f 55/2/3 54/2/3 53/2/3
f 55/2/3 49/2/3 48/2/3
f 55/2/3 51/2/3 50/2/3
f 55/2/3 52/2/3 51/2/3
f 56/2/3 18/2/3 54/2/3
f 56/2/3 54/2/3 55/2/3
f 57/2/4 58/2/4 60/2/4
f 59/2/4 60/2/4 61/2/4
f 60/2/4 58/2/4 62/2/4
f 61/2/4 60/2/4 62/2/4
f 62/2/4 58/2/4 63/2/4
f 63/2/4 58/2/4 64/2/4
f 67/2/5 66/2/5 65/2/5
f 68/2/5 66/2/5 67/2/5
f 73/2/5 70/2/5 69/2/5
f 74/2/5 70/2/5 73/2/5
f 75/2/5 72/2/5 71/2/5
f 76/2/5 72/2/5 75/2/5
f 77/2/6 78/2/6 79/2/6
f 79/2/6 78/2/6 80/2/6
