# MagicaVoxel @ Ephtracy

# group
o 

# material
mtllib Shield.mtl
usemtl palette

# normals
vn -1 0 0
vn 1 0 0
vn 0 0 1
vn 0 0 -1
vn 0 -1 0
vn 0 1 0

# texcoords
vt 0.00195313 0.5
vt 0.0449219 0.5
vt 0.0683594 0.5

# verts
v -0.3 0.2 0.1
v -0.3 0.2 0
v -0.3 0.9 0.1
v -0.3 0.9 0
v -0.2 0.1 0.1
v -0.2 0.1 0
v -0.2 0.2 0.1
v -0.2 0.2 0
v -0.2 0.3 0.2
v -0.2 0.3 0.1
v -0.2 0.3 0
v -0.2 0.3 -0.1
v -0.2 0.8 0.2
v -0.2 0.8 0.1
v -0.2 0.8 0
v -0.2 0.8 -0.1
v -0.1 0 0.1
v -0.1 0 0
v -0.1 0.1 0.1
v -0.1 0.1 0
v -0.1 0.2 0.2
v -0.1 0.2 0.1
v -0.1 0.2 0
v -0.1 0.2 -0.1
v -0.1 0.3 0.3
v -0.1 0.3 0.2
v -0.1 0.3 0.1
v -0.1 0.3 0
v -0.1 0.3 -0.1
v -0.1 0.3 -0.2
v -0.1 0.6 0.3
v -0.1 0.6 0.2
v -0.1 0.6 -0.1
v -0.1 0.6 -0.2
v 0 0.1 0.2
v 0 0.1 0.1
v 0 0.1 0
v 0 0.1 -0.1
v 0 0.2 0.3
v 0 0.2 0.2
v 0 0.2 0.1
v 0 0.2 0
v 0 0.2 -0.1
v 0 0.2 -0.2
v 0 0.3 0.3
v 0 0.3 0.2
v 0 0.3 -0.1
v 0 0.3 -0.2
v 0.2 0.7 0.2
v 0.2 0.7 0.1
v 0.2 0.7 0
v 0.2 0.7 -0.1
v 0.2 0.8 0.2
v 0.2 0.8 0.1
v 0.2 0.8 0
v 0.2 0.8 -0.1
v 0.2 0.9 0.1
v 0.2 0.9 0
v -0.1 0.7 0.2
v -0.1 0.7 0.1
v -0.1 0.7 0
v -0.1 0.7 -0.1
v -0.1 0.8 0.2
v -0.1 0.8 0.1
v -0.1 0.8 0
v -0.1 0.8 -0.1
v -0.1 0.9 0.1
v -0.1 0.9 0
v 0.1 0.1 0.2
v 0.1 0.1 0.1
v 0.1 0.1 0
v 0.1 0.1 -0.1
v 0.1 0.2 0.3
v 0.1 0.2 0.2
v 0.1 0.2 0.1
v 0.1 0.2 0
v 0.1 0.2 -0.1
v 0.1 0.2 -0.2
v 0.1 0.3 0.3
v 0.1 0.3 0.2
v 0.1 0.3 -0.1
v 0.1 0.3 -0.2
v 0.2 0 0.1
v 0.2 0 0
v 0.2 0.1 0.1
v 0.2 0.1 0
v 0.2 0.2 0.2
v 0.2 0.2 0.1
v 0.2 0.2 0
v 0.2 0.2 -0.1
v 0.2 0.3 0.3
v 0.2 0.3 0.2
v 0.2 0.3 0.1
v 0.2 0.3 0
v 0.2 0.3 -0.1
v 0.2 0.3 -0.2
v 0.2 0.6 0.3
v 0.2 0.6 0.2
v 0.2 0.6 -0.1
v 0.2 0.6 -0.2
v 0.3 0.1 0.1
v 0.3 0.1 0
v 0.3 0.2 0.1
v 0.3 0.2 0
v 0.3 0.3 0.2
v 0.3 0.3 0.1
v 0.3 0.3 0
v 0.3 0.3 -0.1
v 0.3 0.8 0.2
v 0.3 0.8 0.1
v 0.3 0.8 0
v 0.3 0.8 -0.1
v 0.4 0.2 0.1
v 0.4 0.2 0
v 0.4 0.9 0.1
v 0.4 0.9 0
v -0.1 0.3 0.3
v -0.1 0.6 0.3
v 0 0.2 0.3
v 0 0.3 0.3
v 0.1 0.2 0.3
v 0.1 0.3 0.3
v 0.2 0.3 0.3
v 0.2 0.6 0.3
v -0.2 0.3 0.2
v -0.2 0.8 0.2
v -0.1 0.2 0.2
v -0.1 0.3 0.2
v -0.1 0.6 0.2
v -0.1 0.7 0.2
v -0.1 0.8 0.2
v 0 0.1 0.2
v 0 0.2 0.2
v 0 0.3 0.2
v 0.1 0.1 0.2
v 0.1 0.2 0.2
v 0.1 0.3 0.2
v 0.2 0.2 0.2
v 0.2 0.3 0.2
v 0.2 0.6 0.2
v 0.2 0.7 0.2
v 0.2 0.8 0.2
v 0.3 0.3 0.2
v 0.3 0.8 0.2
v -0.3 0.2 0.1
v -0.3 0.9 0.1
v -0.2 0.1 0.1
v -0.2 0.2 0.1
v -0.2 0.3 0.1
v -0.2 0.8 0.1
v -0.1 0 0.1
v -0.1 0.1 0.1
v -0.1 0.2 0.1
v -0.1 0.3 0.1
v -0.1 0.7 0.1
v -0.1 0.8 0.1
v -0.1 0.9 0.1
v 0 0.1 0.1
v 0 0.2 0.1
v 0.1 0.1 0.1
v 0.1 0.2 0.1
v 0.2 0 0.1
v 0.2 0.1 0.1
v 0.2 0.2 0.1
v 0.2 0.3 0.1
v 0.2 0.7 0.1
v 0.2 0.8 0.1
v 0.2 0.9 0.1
v 0.3 0.1 0.1
v 0.3 0.2 0.1
v 0.3 0.3 0.1
v 0.3 0.8 0.1
v 0.4 0.2 0.1
v 0.4 0.9 0.1
v -0.3 0.2 0
v -0.3 0.9 0
v -0.2 0.1 0
v -0.2 0.2 0
v -0.2 0.3 0
v -0.2 0.8 0
v -0.1 0 0
v -0.1 0.1 0
v -0.1 0.2 0
v -0.1 0.3 0
v -0.1 0.7 0
v -0.1 0.8 0
v -0.1 0.9 0
v 0 0.1 0
v 0 0.2 0
v 0.1 0.1 0
v 0.1 0.2 0
v 0.2 0 0
v 0.2 0.1 0
v 0.2 0.2 0
v 0.2 0.3 0
v 0.2 0.7 0
v 0.2 0.8 0
v 0.2 0.9 0
v 0.3 0.1 0
v 0.3 0.2 0
v 0.3 0.3 0
v 0.3 0.8 0
v 0.4 0.2 0
v 0.4 0.9 0
v -0.2 0.3 -0.1
v -0.2 0.8 -0.1
v -0.1 0.2 -0.1
v -0.1 0.3 -0.1
v -0.1 0.6 -0.1
v -0.1 0.7 -0.1
v -0.1 0.8 -0.1
v 0 0.1 -0.1
v 0 0.2 -0.1
v 0 0.3 -0.1
v 0.1 0.1 -0.1
v 0.1 0.2 -0.1
v 0.1 0.3 -0.1
v 0.2 0.2 -0.1
v 0.2 0.3 -0.1
v 0.2 0.6 -0.1
v 0.2 0.7 -0.1
v 0.2 0.8 -0.1
v 0.3 0.3 -0.1
v 0.3 0.8 -0.1
v -0.1 0.3 -0.2
v -0.1 0.6 -0.2
v 0 0.2 -0.2
v 0 0.3 -0.2
v 0.1 0.2 -0.2
v 0.1 0.3 -0.2
v 0.2 0.3 -0.2
v 0.2 0.6 -0.2
v -0.1 0 0.1
v 0.2 0 0.1
v -0.1 0 0
v 0.2 0 0
v 0 0.1 0.2
v 0.1 0.1 0.2
v -0.2 0.1 0.1
v -0.1 0.1 0.1
v 0 0.1 0.1
v 0.1 0.1 0.1
v 0.2 0.1 0.1
v 0.3 0.1 0.1
v -0.2 0.1 0
v -0.1 0.1 0
v 0 0.1 0
v 0.1 0.1 0
v 0.2 0.1 0
v 0.3 0.1 0
v 0 0.1 -0.1
v 0.1 0.1 -0.1
v 0 0.2 0.3
v 0.1 0.2 0.3
v -0.1 0.2 0.2
v 0 0.2 0.2
v 0.1 0.2 0.2
v 0.2 0.2 0.2
v -0.3 0.2 0.1
v -0.2 0.2 0.1
v -0.1 0.2 0.1
v 0 0.2 0.1
v 0.1 0.2 0.1
v 0.2 0.2 0.1
v 0.3 0.2 0.1
v 0.4 0.2 0.1
v -0.3 0.2 0
v -0.2 0.2 0
v -0.1 0.2 0
v 0 0.2 0
v 0.1 0.2 0
v 0.2 0.2 0
v 0.3 0.2 0
v 0.4 0.2 0
v -0.1 0.2 -0.1
v 0 0.2 -0.1
v 0.1 0.2 -0.1
v 0.2 0.2 -0.1
v 0 0.2 -0.2
v 0.1 0.2 -0.2
v -0.1 0.3 0.3
v 0 0.3 0.3
v 0.1 0.3 0.3
v 0.2 0.3 0.3
v -0.2 0.3 0.2
v -0.1 0.3 0.2
v 0 0.3 0.2
v 0.1 0.3 0.2
v 0.2 0.3 0.2
v 0.3 0.3 0.2
v -0.2 0.3 0.1
v -0.1 0.3 0.1
v 0.2 0.3 0.1
v 0.3 0.3 0.1
v -0.2 0.3 0
v -0.1 0.3 0
v 0.2 0.3 0
v 0.3 0.3 0
v -0.2 0.3 -0.1
v -0.1 0.3 -0.1
v 0 0.3 -0.1
v 0.1 0.3 -0.1
v 0.2 0.3 -0.1
v 0.3 0.3 -0.1
v -0.1 0.3 -0.2
v 0 0.3 -0.2
v 0.1 0.3 -0.2
v 0.2 0.3 -0.2
v -0.1 0.6 0.3
v 0.2 0.6 0.3
v -0.1 0.6 0.2
v 0.2 0.6 0.2
v -0.1 0.6 -0.1
v 0.2 0.6 -0.1
v -0.1 0.6 -0.2
v 0.2 0.6 -0.2
v -0.1 0.7 0.2
v 0.2 0.7 0.2
v -0.1 0.7 0.1
v 0.2 0.7 0.1
v -0.1 0.7 0
v 0.2 0.7 0
v -0.1 0.7 -0.1
v 0.2 0.7 -0.1
v -0.2 0.8 0.2
v -0.1 0.8 0.2
v 0.2 0.8 0.2
v 0.3 0.8 0.2
v -0.2 0.8 0.1
v -0.1 0.8 0.1
v 0.2 0.8 0.1
v 0.3 0.8 0.1
v -0.2 0.8 0
v -0.1 0.8 0
v 0.2 0.8 0
v 0.3 0.8 0
v -0.2 0.8 -0.1
v -0.1 0.8 -0.1
v 0.2 0.8 -0.1
v 0.3 0.8 -0.1
v -0.3 0.9 0.1
v -0.1 0.9 0.1
v 0.2 0.9 0.1
v 0.4 0.9 0.1
v -0.3 0.9 0
v -0.1 0.9 0
v 0.2 0.9 0
v 0.4 0.9 0

# faces
f 3/3/1 2/3/1 1/3/1
f 4/3/1 2/3/1 3/3/1
f 7/3/1 6/3/1 5/3/1
f 8/3/1 6/3/1 7/3/1
f 13/1/1 10/1/1 9/1/1
f 14/1/1 10/1/1 13/1/1
f 15/1/1 12/1/1 11/1/1
f 16/1/1 12/1/1 15/1/1
f 19/3/1 18/3/1 17/3/1
f 20/3/1 18/3/1 19/3/1
f 26/1/1 22/1/1 21/1/1
f 27/1/1 22/1/1 26/1/1
f 28/1/1 24/1/1 23/1/1
f 29/1/1 24/1/1 28/1/1
f 31/2/1 26/2/1 25/2/1
f 32/2/1 26/2/1 31/2/1
f 33/2/1 30/2/1 29/2/1
f 34/2/1 30/2/1 33/2/1
f 40/1/1 36/1/1 35/1/1
f 41/1/1 36/1/1 40/1/1
f 42/1/1 38/1/1 37/1/1
f 43/1/1 38/1/1 42/1/1
f 45/2/1 40/2/1 39/2/1
f 46/2/1 40/2/1 45/2/1
f 47/2/1 44/2/1 43/2/1
f 48/2/1 44/2/1 47/2/1
f 53/1/1 50/1/1 49/1/1
f 54/1/1 50/1/1 53/1/1
f 55/1/1 52/1/1 51/1/1
f 56/1/1 52/1/1 55/1/1
f 57/3/1 55/3/1 54/3/1
f 58/3/1 55/3/1 57/3/1
f 59/1/2 60/1/2 63/1/2
f 63/1/2 60/1/2 64/1/2
f 61/1/2 62/1/2 65/1/2
f 65/1/2 62/1/2 66/1/2
f 64/3/2 65/3/2 67/3/2
f 67/3/2 65/3/2 68/3/2
f 69/1/2 70/1/2 74/1/2
f 74/1/2 70/1/2 75/1/2
f 71/1/2 72/1/2 76/1/2
f 76/1/2 72/1/2 77/1/2
f 73/2/2 74/2/2 79/2/2
f 79/2/2 74/2/2 80/2/2
f 77/2/2 78/2/2 81/2/2
f 81/2/2 78/2/2 82/2/2
f 83/3/2 84/3/2 85/3/2
f 85/3/2 84/3/2 86/3/2
f 87/1/2 88/1/2 92/1/2
f 92/1/2 88/1/2 93/1/2
f 89/1/2 90/1/2 94/1/2
f 94/1/2 90/1/2 95/1/2
f 91/2/2 92/2/2 97/2/2
f 97/2/2 92/2/2 98/2/2
f 95/2/2 96/2/2 99/2/2
f 99/2/2 96/2/2 100/2/2
f 101/3/2 102/3/2 103/3/2
f 103/3/2 102/3/2 104/3/2
f 105/1/2 106/1/2 109/1/2
f 109/1/2 106/1/2 110/1/2
f 107/1/2 108/1/2 111/1/2
f 111/1/2 108/1/2 112/1/2
f 113/3/2 114/3/2 115/3/2
f 115/3/2 114/3/2 116/3/2
f 120/2/3 118/2/3 117/2/3
f 121/2/3 120/2/3 119/2/3
f 122/2/3 118/2/3 120/2/3
f 122/2/3 120/2/3 121/2/3
f 123/2/3 118/2/3 122/2/3
f 124/2/3 118/2/3 123/2/3
f 128/1/3 126/1/3 125/1/3
f 129/1/3 126/1/3 128/1/3
f 130/1/3 126/1/3 129/1/3
f 131/1/3 126/1/3 130/1/3
f 133/1/3 128/1/3 127/1/3
f 134/1/3 128/1/3 133/1/3
f 135/1/3 133/1/3 132/1/3
f 136/1/3 133/1/3 135/1/3
f 138/1/3 137/1/3 136/1/3
f 139/1/3 137/1/3 138/1/3
f 140/1/3 130/1/3 129/1/3
f 141/1/3 130/1/3 140/1/3
f 143/1/3 142/1/3 141/1/3
f 143/1/3 141/1/3 140/1/3
f 143/1/3 140/1/3 139/1/3
f 144/1/3 142/1/3 143/1/3
f 148/3/3 146/3/3 145/3/3
f 149/3/3 146/3/3 148/3/3
f 150/3/3 146/3/3 149/3/3
f 152/3/3 148/3/3 147/3/3
f 152/3/3 149/3/3 148/3/3
f 153/3/3 149/3/3 152/3/3
f 154/3/3 149/3/3 153/3/3
f 156/3/3 146/3/3 150/3/3
f 157/3/3 146/3/3 156/3/3
f 158/3/3 152/3/3 151/3/3
f 158/3/3 153/3/3 152/3/3
f 159/3/3 153/3/3 158/3/3
f 160/3/3 158/3/3 151/3/3
f 162/3/3 160/3/3 151/3/3
f 162/3/3 161/3/3 160/3/3
f 163/3/3 161/3/3 162/3/3
f 164/3/3 161/3/3 163/3/3
f 166/3/3 156/3/3 155/3/3
f 167/3/3 156/3/3 166/3/3
f 169/3/3 165/3/3 164/3/3
f 169/3/3 164/3/3 163/3/3
f 170/3/3 165/3/3 169/3/3
f 171/3/3 165/3/3 170/3/3
f 172/3/3 168/3/3 167/3/3
f 173/3/3 171/3/3 170/3/3
f 173/3/3 172/3/3 171/3/3
f 174/3/3 168/3/3 172/3/3
f 174/3/3 172/3/3 173/3/3
f 175/3/4 176/3/4 178/3/4
f 178/3/4 176/3/4 179/3/4
f 179/3/4 176/3/4 180/3/4
f 177/3/4 178/3/4 182/3/4
f 178/3/4 179/3/4 182/3/4
f 182/3/4 179/3/4 183/3/4
f 183/3/4 179/3/4 184/3/4
f 180/3/4 176/3/4 186/3/4
f 186/3/4 176/3/4 187/3/4
f 181/3/4 182/3/4 188/3/4
f 182/3/4 183/3/4 188/3/4
f 188/3/4 183/3/4 189/3/4
f 181/3/4 188/3/4 190/3/4
f 181/3/4 190/3/4 192/3/4
f 190/3/4 191/3/4 192/3/4
f 192/3/4 191/3/4 193/3/4
f 193/3/4 191/3/4 194/3/4
f 185/3/4 186/3/4 196/3/4
f 196/3/4 186/3/4 197/3/4
f 194/3/4 195/3/4 199/3/4
f 193/3/4 194/3/4 199/3/4
f 199/3/4 195/3/4 200/3/4
f 200/3/4 195/3/4 201/3/4
f 197/3/4 198/3/4 202/3/4
f 200/3/4 201/3/4 203/3/4
f 201/3/4 202/3/4 203/3/4
f 202/3/4 198/3/4 204/3/4
f 203/3/4 202/3/4 204/3/4
f 205/1/4 206/1/4 208/1/4
f 208/1/4 206/1/4 209/1/4
f 209/1/4 206/1/4 210/1/4
f 210/1/4 206/1/4 211/1/4
f 207/1/4 208/1/4 213/1/4
f 213/1/4 208/1/4 214/1/4
f 212/1/4 213/1/4 215/1/4
f 215/1/4 213/1/4 216/1/4
f 216/1/4 217/1/4 218/1/4
f 218/1/4 217/1/4 219/1/4
f 209/1/4 210/1/4 220/1/4
f 220/1/4 210/1/4 221/1/4
f 221/1/4 222/1/4 223/1/4
f 220/1/4 221/1/4 223/1/4
f 219/1/4 220/1/4 223/1/4
f 223/1/4 222/1/4 224/1/4
f 225/2/4 226/2/4 228/2/4
f 227/2/4 228/2/4 229/2/4
f 228/2/4 226/2/4 230/2/4
f 229/2/4 228/2/4 230/2/4
f 230/2/4 226/2/4 231/2/4
f 231/2/4 226/2/4 232/2/4
f 235/3/5 234/3/5 233/3/5
f 236/3/5 234/3/5 235/3/5
f 241/1/5 238/1/5 237/1/5
f 242/1/5 238/1/5 241/1/5
f 245/3/5 240/3/5 239/3/5
f 246/3/5 240/3/5 245/3/5
f 249/3/5 244/3/5 243/3/5
f 250/3/5 244/3/5 249/3/5
f 251/1/5 248/1/5 247/1/5
f 252/1/5 248/1/5 251/1/5
f 256/2/5 254/2/5 253/2/5
f 257/2/5 254/2/5 256/2/5
f 261/1/5 256/1/5 255/1/5
f 262/1/5 256/1/5 261/1/5
f 263/1/5 258/1/5 257/1/5
f 264/1/5 258/1/5 263/1/5
f 267/3/5 260/3/5 259/3/5
f 268/3/5 260/3/5 267/3/5
f 273/3/5 266/3/5 265/3/5
f 274/3/5 266/3/5 273/3/5
f 275/1/5 270/1/5 269/1/5
f 276/1/5 270/1/5 275/1/5
f 277/1/5 272/1/5 271/1/5
f 278/1/5 272/1/5 277/1/5
f 279/2/5 277/2/5 276/2/5
f 280/2/5 277/2/5 279/2/5
f 286/2/5 282/2/5 281/2/5
f 287/2/5 282/2/5 286/2/5
f 288/2/5 284/2/5 283/2/5
f 289/2/5 284/2/5 288/2/5
f 291/1/5 286/1/5 285/1/5
f 292/1/5 286/1/5 291/1/5
f 293/1/5 290/1/5 289/1/5
f 294/1/5 290/1/5 293/1/5
f 299/1/5 296/1/5 295/1/5
f 300/1/5 296/1/5 299/1/5
f 303/1/5 298/1/5 297/1/5
f 304/1/5 298/1/5 303/1/5
f 305/2/5 301/2/5 300/2/5
f 306/2/5 301/2/5 305/2/5
f 307/2/5 303/2/5 302/2/5
f 308/2/5 303/2/5 307/2/5
f 309/2/6 310/2/6 311/2/6
f 311/2/6 310/2/6 312/2/6
f 313/2/6 314/2/6 315/2/6
f 315/2/6 314/2/6 316/2/6
f 317/1/6 318/1/6 319/1/6
f 319/1/6 318/1/6 320/1/6
f 321/1/6 322/1/6 323/1/6
f 323/1/6 322/1/6 324/1/6
f 325/1/6 326/1/6 329/1/6
f 329/1/6 326/1/6 330/1/6
f 327/1/6 328/1/6 331/1/6
f 331/1/6 328/1/6 332/1/6
f 330/3/6 331/3/6 334/3/6
f 334/3/6 331/3/6 335/3/6
f 333/1/6 334/1/6 337/1/6
f 337/1/6 334/1/6 338/1/6
f 335/1/6 336/1/6 339/1/6
f 339/1/6 336/1/6 340/1/6
f 341/3/6 342/3/6 345/3/6
f 345/3/6 342/3/6 346/3/6
f 343/3/6 344/3/6 347/3/6
f 347/3/6 344/3/6 348/3/6
